<svg width="1643" height="847" viewBox="0 0 1643 847" fill="none" xmlns="http://www.w3.org/2000/svg">
<g clip-path="url(#clip0_2821_8065)">
<path d="M317.73 731.65L293.33 537.06C283.72 460.45 338.33 398.34 415.39 398.34H544.24" stroke="#101323" stroke-width="6" stroke-linecap="round" stroke-linejoin="round"/>
<path d="M625 394.92L641 372.39L636.79 342.14C635.66 340 634.5 337.77 633.31 335.47C545.94 348.47 535.31 385.08 554.93 424.29C410 452.59 346.9 675.05 384.6 780.6C395.34 810.6 403.96 840.6 435.87 840.94" stroke="#101323" stroke-width="6" stroke-linecap="round" stroke-linejoin="round"/>
<path d="M670.57 475.79C670.57 475.6 670.57 475.41 670.57 475.22C675.31 475.68 679.91 475.71 684.35 471.87C695.35 462.34 699.25 459.48 699.25 459.48C699.25 459.48 700.25 460.68 702.02 462.71C704.19 458.71 706.45 454.56 708.76 450.36C661.27 413.58 625 394.92 625 394.92L622.32 393L604.88 414.27C604.88 414.27 633.26 433.83 670.57 475.79Z" fill="#FB6514"/>
<path d="M900.13 821.06C900.13 821.06 824.13 616.67 833.8 553.33C839.07 518.78 830.8 479.6 819.38 449.33L797.61 450.74L771.55 512.36C773.25 512.78 774.95 513.13 776.65 513.36C776.65 513.36 775.65 519.83 773.19 534.7C771.54 544.61 774.37 545.7 776.61 552.58C779.5 557.21 781.72 562.41 779.28 570.45C778.48 573.08 776.58 597.85 772.28 631.45C780.28 648.45 787.92 666.39 795.08 685.45C841.16 808.37 836.37 821.78 836.37 821.78L900.13 821.06Z" fill="#FB6514"/>
<path d="M1157.5 839.33C1152.03 803.33 1113.02 610.1 889.84 440.61C884.84 410.33 872.19 362.67 807.18 340.39" stroke="#101323" stroke-width="6" stroke-linecap="round" stroke-linejoin="round"/>
<path d="M851.9 542.569C851.9 542.569 849.5 607.849 863.79 654.779" stroke="#101323" stroke-width="8" stroke-linecap="round" stroke-linejoin="round"/>
<path d="M886.88 439.859C887.59 444.119 888.14 448.039 888.67 451.479C894.81 491.299 881.67 517.739 872.98 536.069C896.31 519.569 912.04 488.189 919.98 464.259C910.39 456.579 897.3 447.619 886.88 439.859Z" fill="#101323"/>
<path d="M557.24 422.52C540.92 425.85 514.1 433.98 494.77 447.35C508.27 454.71 575.13 494.75 629.77 518.77C630.2 518.52 633.2 513.52 634.7 511.57C604.46 487.59 572.65 453.41 557.24 422.52Z" fill="#101323"/>
<path d="M601.25 263.25C601.25 263.25 564.14 273.31 579.16 305C589.6 327 609.42 319.18 621.24 312.51" stroke="#101323" stroke-width="6" stroke-linecap="round" stroke-linejoin="round"/>
<path d="M611.15 269.269L622.81 265.359C630.5 270.009 655.9 301.569 664.09 317.209C664.09 317.209 701.38 293.019 759.59 277.549C759.59 277.549 791.28 270.309 805.06 270.889C801.06 238.889 792.88 198.009 778.48 161.459C757.06 107.129 690.78 128.209 681.16 131.459C577.79 166.629 611.05 269.039 611.05 269.039L611.15 269.269Z" stroke="#101323" stroke-width="6" stroke-linecap="round" stroke-linejoin="round"/>
<path d="M727.49 403.369C715.05 403.369 703.22 401.299 693.91 397.619C663.71 385.689 657.29 377.999 646.45 359.859C635.61 341.719 601.64 272.469 601.64 272.469L622.81 265.359C630.5 270.009 655.9 301.569 664.09 317.209C664.09 317.209 701.38 293.019 759.59 277.549C759.59 277.549 791.59 270.229 805.28 270.889C805.28 270.889 811.82 303.429 807.9 335.329" stroke="#101323" stroke-width="6" stroke-linecap="round" stroke-linejoin="round"/>
<path d="M604.24 281.52C604.24 281.52 585.12 259.35 571.31 232.86C558.31 207.96 563.7 177.11 585.25 159.11C603.29 144 620.46 148 620.46 148C620.46 148 589.4 116.36 613.89 75.43C618.177 68.2684 623.881 62.0574 630.652 57.1775C637.424 52.2975 645.12 48.8513 653.27 47.05C693.47 38.24 714.27 68.9 714.27 68.9C714.27 68.9 698.79 8.46 798 33C808 35.48 804.03 73.3997 811 80.9997C853.22 127.09 829.46 158 781.07 175.42C727.94 194.54 693.77 193.49 672.89 184.55C687.9 189.12 688.45 273.79 604.24 281.52Z" fill="#101323"/>
<path d="M757.57 253.949L776.31 303.809L757.05 303.709" stroke="#101323" stroke-width="8" stroke-linecap="round" stroke-linejoin="round"/>
<path d="M747.28 347.02C752.51 347.02 756.75 342.78 756.75 337.55C756.75 332.32 752.51 328.08 747.28 328.08C742.05 328.08 737.81 332.32 737.81 337.55C737.81 342.78 742.05 347.02 747.28 347.02Z" fill="#101323"/>
<path d="M779.738 258.073C782.642 257.347 784.085 253.114 782.961 248.619C781.837 244.124 778.572 241.068 775.668 241.794C772.764 242.521 771.321 246.753 772.445 251.249C773.569 255.744 776.834 258.799 779.738 258.073Z" fill="#101323"/>
<path d="M728.885 269.848C731.789 269.121 733.232 264.889 732.108 260.393C730.984 255.898 727.718 252.843 724.814 253.569C721.911 254.295 720.468 258.528 721.592 263.023C722.716 267.518 725.981 270.574 728.885 269.848Z" fill="#101323"/>
<path d="M693.66 229.94C695.462 225.874 698.322 222.366 701.942 219.782C705.562 217.198 709.809 215.633 714.24 215.25" stroke="#101323" stroke-width="8" stroke-linecap="round" stroke-linejoin="round"/>
<path d="M762.32 202.32C762.32 202.32 775.96 194.89 782.59 205.9" stroke="#101323" stroke-width="8" stroke-linecap="round" stroke-linejoin="round"/>
<path d="M1354 562.899H965.2C962.723 562.901 960.32 563.737 958.378 565.275C956.436 566.812 955.07 568.959 954.5 571.369L900.44 800.189H759.51C759.51 800.189 751.7 840.529 797.24 840.529H1293.63C1296.11 840.528 1298.51 839.691 1300.45 838.154C1302.39 836.617 1303.76 834.47 1304.33 832.059L1364.72 576.429C1365.1 574.813 1365.11 573.131 1364.75 571.51C1364.39 569.889 1363.67 568.37 1362.64 567.068C1361.61 565.766 1360.29 564.715 1358.8 563.993C1357.3 563.271 1355.66 562.897 1354 562.899Z" fill="#101323"/>
<path d="M1199.76 206.239H1196.7C1193.94 206.239 1191.7 208.478 1191.7 211.239V219.129C1191.7 221.891 1193.94 224.129 1196.7 224.129H1199.76C1202.52 224.129 1204.76 221.891 1204.76 219.129V211.239C1204.76 208.478 1202.52 206.239 1199.76 206.239Z" fill="#FB6514"/>
<path d="M1181.68 206.239H1101.88C1099.12 206.239 1096.88 208.478 1096.88 211.239V219.129C1096.88 221.891 1099.12 224.129 1101.88 224.129H1181.68C1184.44 224.129 1186.68 221.891 1186.68 219.129V211.239C1186.68 208.478 1184.44 206.239 1181.68 206.239Z" fill="#101323"/>
<path d="M1189.81 289.339H1101.88C1099.12 289.339 1096.88 291.577 1096.88 294.339V302.229C1096.88 304.99 1099.12 307.229 1101.88 307.229H1189.81C1192.57 307.229 1194.81 304.99 1194.81 302.229V294.339C1194.81 291.577 1192.57 289.339 1189.81 289.339Z" fill="#101323"/>
<path d="M1268.53 261.669H1126.64C1123.88 261.669 1121.64 263.908 1121.64 266.669V274.559C1121.64 277.32 1123.88 279.559 1126.64 279.559H1268.53C1271.29 279.559 1273.53 277.32 1273.53 274.559V266.669C1273.53 263.908 1271.29 261.669 1268.53 261.669Z" fill="#FB6514"/>
<path d="M1359.07 261.669H1287.03C1284.27 261.669 1282.03 263.908 1282.03 266.669V274.559C1282.03 277.32 1284.27 279.559 1287.03 279.559H1359.07C1361.83 279.559 1364.07 277.32 1364.07 274.559V266.669C1364.07 263.908 1361.83 261.669 1359.07 261.669Z" fill="#FB6514"/>
<path d="M1386.84 234.009H1383.78C1381.02 234.009 1378.78 236.247 1378.78 239.009V246.899C1378.78 249.66 1381.02 251.899 1383.78 251.899H1386.84C1389.6 251.899 1391.84 249.66 1391.84 246.899V239.009C1391.84 236.247 1389.6 234.009 1386.84 234.009Z" fill="#101323"/>
<path d="M1248.94 233.959H1101.88C1099.12 233.959 1096.88 236.198 1096.88 238.959V246.849C1096.88 249.61 1099.12 251.849 1101.88 251.849H1248.94C1251.7 251.849 1253.94 249.61 1253.94 246.849V238.959C1253.94 236.198 1251.7 233.959 1248.94 233.959Z" fill="#101323"/>
<path d="M1295.32 206.239H1215.52C1212.76 206.239 1210.52 208.478 1210.52 211.239V219.129C1210.52 221.891 1212.76 224.129 1215.52 224.129H1295.32C1298.08 224.129 1300.32 221.891 1300.32 219.129V211.239C1300.32 208.478 1298.08 206.239 1295.32 206.239Z" fill="#101323"/>
<path d="M1366.76 233.899H1265.97C1263.21 233.899 1260.97 236.138 1260.97 238.899V246.899C1260.97 249.661 1263.21 251.899 1265.97 251.899H1366.76C1369.52 251.899 1371.76 249.661 1371.76 246.899V238.899C1371.76 236.138 1369.52 233.899 1366.76 233.899Z" fill="#FB6514"/>
<path d="M1181.68 385.609H1101.88C1099.12 385.609 1096.88 387.848 1096.88 390.609V398.499C1096.88 401.261 1099.12 403.499 1101.88 403.499H1181.68C1184.44 403.499 1186.68 401.261 1186.68 398.499V390.609C1186.68 387.848 1184.44 385.609 1181.68 385.609Z" fill="#101323"/>
<path d="M1189.81 468.71H1101.88C1099.12 468.71 1096.88 470.949 1096.88 473.71V481.6C1096.88 484.361 1099.12 486.6 1101.88 486.6H1189.81C1192.57 486.6 1194.81 484.361 1194.81 481.6V473.71C1194.81 470.949 1192.57 468.71 1189.81 468.71Z" fill="#101323"/>
<path d="M1268.53 441.05H1126.64C1123.88 441.05 1121.64 443.288 1121.64 446.05V453.94C1121.64 456.701 1123.88 458.94 1126.64 458.94H1268.53C1271.29 458.94 1273.53 456.701 1273.53 453.94V446.05C1273.53 443.288 1271.29 441.05 1268.53 441.05Z" fill="#FB6514"/>
<path d="M1359.07 441.05H1287.03C1284.27 441.05 1282.03 443.288 1282.03 446.05V453.94C1282.03 456.701 1284.27 458.94 1287.03 458.94H1359.07C1361.83 458.94 1364.07 456.701 1364.07 453.94V446.05C1364.07 443.288 1361.83 441.05 1359.07 441.05Z" fill="#FB6514"/>
<path d="M1386.84 413.38H1383.78C1381.02 413.38 1378.78 415.618 1378.78 418.38V426.27C1378.78 429.031 1381.02 431.27 1383.78 431.27H1386.84C1389.6 431.27 1391.84 429.031 1391.84 426.27V418.38C1391.84 415.618 1389.6 413.38 1386.84 413.38Z" fill="#101323"/>
<path d="M1409.68 385.609H1406.62C1403.86 385.609 1401.62 387.848 1401.62 390.609V398.499C1401.62 401.261 1403.86 403.499 1406.62 403.499H1409.68C1412.44 403.499 1414.68 401.261 1414.68 398.499V390.609C1414.68 387.848 1412.44 385.609 1409.68 385.609Z" fill="#101323"/>
<path d="M1248.94 413.33H1101.88C1099.12 413.33 1096.88 415.569 1096.88 418.33V426.22C1096.88 428.982 1099.12 431.22 1101.88 431.22H1248.94C1251.7 431.22 1253.94 428.982 1253.94 426.22V418.33C1253.94 415.569 1251.7 413.33 1248.94 413.33Z" fill="#101323"/>
<path d="M1295.32 385.609H1196.7C1193.94 385.609 1191.7 387.848 1191.7 390.609V398.499C1191.7 401.261 1193.94 403.499 1196.7 403.499H1295.32C1298.08 403.499 1300.32 401.261 1300.32 398.499V390.609C1300.32 387.848 1298.08 385.609 1295.32 385.609Z" fill="#FB6514"/>
<path d="M1392.04 385.609H1312.24C1309.48 385.609 1307.24 387.848 1307.24 390.609V398.499C1307.24 401.261 1309.48 403.499 1312.24 403.499H1392.04C1394.8 403.499 1397.04 401.261 1397.04 398.499V390.609C1397.04 387.848 1394.8 385.609 1392.04 385.609Z" fill="#FB6514"/>
<path d="M1199.76 358.8H1196.7C1193.94 358.8 1191.7 361.038 1191.7 363.8V371.69C1191.7 374.451 1193.94 376.69 1196.7 376.69H1199.76C1202.52 376.69 1204.76 374.451 1204.76 371.69V363.8C1204.76 361.038 1202.52 358.8 1199.76 358.8Z" fill="#FB6514"/>
<path d="M1181.68 358.8H1101.88C1099.12 358.8 1096.88 361.038 1096.88 363.8V371.69C1096.88 374.451 1099.12 376.69 1101.88 376.69H1181.68C1184.44 376.69 1186.68 374.451 1186.68 371.69V363.8C1186.68 361.038 1184.44 358.8 1181.68 358.8Z" fill="#101323"/>
<path d="M1295.32 358.8H1215.52C1212.76 358.8 1210.52 361.038 1210.52 363.8V371.69C1210.52 374.451 1212.76 376.69 1215.52 376.69H1295.32C1298.08 376.69 1300.32 374.451 1300.32 371.69V363.8C1300.32 361.038 1298.08 358.8 1295.32 358.8Z" fill="#101323"/>
<path d="M1366.76 413.28H1265.97C1263.21 413.28 1260.97 415.519 1260.97 418.28V426.28C1260.97 429.042 1263.21 431.28 1265.97 431.28H1366.76C1369.52 431.28 1371.76 429.042 1371.76 426.28V418.28C1371.76 415.519 1369.52 413.28 1366.76 413.28Z" fill="#FB6514"/>
<path d="M245.2 786C241.785 786.251 238.355 785.828 235.104 784.753C231.854 783.679 228.846 781.975 226.254 779.738C223.662 777.502 221.536 774.777 219.997 771.719C218.458 768.66 217.536 765.329 217.285 761.915C217.033 758.5 217.457 755.07 218.531 751.819C219.605 748.568 221.309 745.561 223.546 742.969C225.782 740.377 228.508 738.25 231.566 736.712C234.624 735.173 237.955 734.251 241.37 734C242.946 733.881 244.529 733.907 246.1 734.08" stroke="#101323" stroke-width="6" stroke-linecap="round" stroke-linejoin="round"/>
<path d="M241.81 724.71V810.52C241.81 818.476 244.97 826.107 250.596 831.733C256.222 837.359 263.853 840.52 271.81 840.52H322.42C330.376 840.52 338.007 837.359 343.633 831.733C349.259 826.107 352.42 818.476 352.42 810.52V724.71H241.81ZM286.56 787.54C286.868 787.718 287.123 787.975 287.299 788.284C287.474 788.593 287.565 788.944 287.56 789.3C287.56 789.83 287.349 790.339 286.974 790.714C286.599 791.089 286.09 791.3 285.56 791.3C285.21 791.305 284.865 791.219 284.56 791.05L264.56 779.05C264.216 778.888 263.925 778.632 263.722 778.312C263.518 777.991 263.41 777.62 263.41 777.24C263.41 776.86 263.518 776.488 263.722 776.168C263.925 775.847 264.216 775.591 264.56 775.43L284.56 763.43C284.865 763.261 285.21 763.174 285.56 763.18C286.09 763.18 286.599 763.391 286.974 763.766C287.349 764.141 287.56 764.649 287.56 765.18C287.565 765.536 287.474 765.886 287.299 766.196C287.123 766.505 286.868 766.762 286.56 766.94L269.35 777.26L286.56 787.54ZM328.74 779.04L308.74 791.04C308.434 791.209 308.089 791.295 307.74 791.29C307.475 791.295 307.212 791.246 306.968 791.144C306.723 791.043 306.502 790.891 306.32 790.7C306.129 790.516 305.979 790.295 305.877 790.051C305.776 789.807 305.725 789.544 305.73 789.28C305.725 788.924 305.815 788.573 305.99 788.264C306.166 787.955 306.421 787.698 306.73 787.52L323.94 777.21L306.73 766.89C306.421 766.712 306.166 766.455 305.99 766.146C305.815 765.836 305.725 765.486 305.73 765.13C305.73 764.6 305.94 764.091 306.315 763.716C306.69 763.341 307.199 763.13 307.73 763.13C308.079 763.124 308.424 763.211 308.73 763.38L328.73 775.38C329.073 775.541 329.364 775.797 329.567 776.118C329.771 776.438 329.879 776.81 329.879 777.19C329.879 777.57 329.771 777.941 329.567 778.262C329.364 778.582 329.073 778.838 328.73 779L328.74 779.04Z" fill="#101323"/>
<path d="M728.2 413.19C728.61 400.26 728.41 379.91 723.82 371.02C716.53 356.91 723.33 341.85 738.24 357.26C746.74 366.04 750.91 377.69 752.93 386.08" stroke="#101323" stroke-width="6" stroke-linecap="round" stroke-linejoin="round"/>
<path d="M854.1 392.44C868.498 392.44 880.17 380.768 880.17 366.37C880.17 351.972 868.498 340.3 854.1 340.3C839.702 340.3 828.03 351.972 828.03 366.37C828.03 380.768 839.702 392.44 854.1 392.44Z" stroke="#101323" stroke-width="6" stroke-linecap="round" stroke-linejoin="round"/>
<path d="M685.24 843.52C761.44 837.83 776.6 579.29 779.24 570.46C784.53 553.02 767.92 548.93 770.1 535.12C772.28 521.31 770.59 515.12 770.59 515.12C734.82 509.3 700.08 464.32 700.08 464.32C700.08 464.32 696.48 466.95 686.23 475.71C675.98 484.47 664.54 471.01 652.84 484.43C645.12 493.38 561 634.6 561 634.6" stroke="#101323" stroke-width="6" stroke-linecap="round" stroke-linejoin="round"/>
<path d="M773.19 534.71C775.67 519.84 776.65 513.369 776.65 513.369C738.56 507.509 699.28 459.479 699.28 459.479C699.28 459.479 695.4 462.339 684.38 471.869C679.94 475.709 675.38 475.679 670.6 475.219C667.23 516.929 742.05 554.059 777.49 555.809C775.23 545.789 771.32 546 773.19 534.71Z" fill="#101323"/>
<path d="M511.48 610.909C511.48 610.909 556.58 571.989 582.76 596.509" stroke="#101323" stroke-width="6" stroke-linecap="round" stroke-linejoin="round"/>
<path d="M684.44 495.72L760 539.65L797.82 450.23C834.31 450.29 834.15 430.47 826.51 429.79C818.87 429.11 782.18 434.26 782.18 434.26C782.18 434.26 783.37 431.59 813.18 425.93C842.99 420.27 837.39 403.66 830.98 403.21C824.57 402.76 777.2 414.63 777.2 414.63L817.9 400.1C832.39 395.5 832.9 381.46 825.33 379.48C820.33 378.17 793.67 386.23 772.57 393.61C772.57 393.61 797.93 380.61 809.96 372.75C821.99 364.89 813.58 354.64 806.55 355.28C799.52 355.92 750.68 388.58 741.38 396.67C732.08 404.76 684.44 495.72 684.44 495.72Z" stroke="#101323" stroke-width="6" stroke-linecap="round" stroke-linejoin="round"/>
<path d="M3 843.029H1639.48" stroke="#101323" stroke-width="6" stroke-linecap="round" stroke-linejoin="round"/>
<path d="M853.73 417L848.19 331.37L737.82 338.52L741.57 396.46C751.38 388.07 799.57 355.89 806.52 355.26C813.47 354.63 821.96 364.88 809.93 372.73C797.9 380.58 772.54 393.59 772.54 393.59C793.64 386.21 820.33 378.15 825.3 379.46C832.88 381.46 832.36 395.46 817.87 400.08L777.17 414.61C777.17 414.61 824.54 402.74 830.95 403.19C837.36 403.64 842.95 420.25 813.15 425.91C783.35 431.57 782.15 434.24 782.15 434.24C782.15 434.24 818.85 429.08 826.48 429.77C834.11 430.46 834.28 450.27 797.79 450.21L797.58 450.7L825.7 448.88C829.635 448.629 833.481 447.606 837.02 445.868C840.558 444.129 843.72 441.711 846.323 438.75C848.926 435.789 850.92 432.344 852.191 428.612C853.462 424.88 853.985 420.934 853.73 417Z" fill="#101323"/>
</g>
<defs>
<clipPath id="clip0_2821_8065">
<rect width="1642.48" height="846.52" fill="white"/>
</clipPath>
</defs>
</svg>
