<svg width="60" height="60" viewBox="0 0 60 60" fill="none" xmlns="http://www.w3.org/2000/svg">
<g clip-path="url(#clip0_2834_8228)">
<path d="M57.3491 6.40818L24.4023 0L17.9942 32.9468L50.9409 39.3549L57.3491 6.40818Z" fill="#FEB273"/>
<path d="M26.9991 10.6395C27.0401 10.4482 27.1527 10.2797 27.3139 10.1687C27.4751 10.0576 27.6726 10.0124 27.866 10.0421L27.9102 10.0503L51.2583 15.0626C51.4555 15.1024 51.6292 15.2181 51.742 15.3848C51.8547 15.5514 51.8975 15.7557 51.861 15.9535C51.8246 16.1514 51.7119 16.327 51.5472 16.4426C51.3826 16.5582 51.1791 16.6044 50.9806 16.5714L50.9364 16.5632L27.5883 11.551C27.4897 11.5298 27.3963 11.4895 27.3134 11.4322C27.2304 11.375 27.1596 11.302 27.1048 11.2173C27.0501 11.1327 27.0126 11.0381 26.9945 10.9389C26.9763 10.8398 26.9779 10.7381 26.9991 10.6395Z" fill="#101323"/>
<path d="M26.1553 15.0125C26.1964 14.8212 26.3089 14.6528 26.47 14.5418C26.6311 14.4307 26.8286 14.3854 27.022 14.4152L27.0665 14.4233L49.5962 19.2566C49.7932 19.2967 49.9665 19.4124 50.079 19.579C50.1915 19.7455 50.2342 19.9495 50.1978 20.1472C50.1615 20.3448 50.049 20.5203 49.8846 20.6359C49.7203 20.7516 49.5171 20.798 49.3188 20.7654L49.2745 20.7572L26.7448 15.924C26.6462 15.9029 26.5528 15.8625 26.4698 15.8053C26.3868 15.7481 26.3159 15.675 26.2612 15.5904C26.2064 15.5058 26.1689 15.4112 26.1507 15.312C26.1326 15.2129 26.1341 15.1111 26.1553 15.0125Z" fill="#101323"/>
<path d="M24.6978 19.4881C24.7389 19.2968 24.8515 19.1284 25.0126 19.0174C25.1737 18.9063 25.3711 18.861 25.5645 18.8907L25.6087 18.8989L42.8705 22.607C43.068 22.6465 43.242 22.7622 43.355 22.9289C43.468 23.0957 43.5109 23.3002 43.4744 23.4983C43.4379 23.6964 43.325 23.8722 43.16 23.9877C42.995 24.1033 42.7911 24.1493 42.5925 24.1158L42.5483 24.1076L25.2865 20.3995C25.188 20.3784 25.0947 20.338 25.0118 20.2807C24.9289 20.2234 24.8581 20.1504 24.8034 20.0658C24.7487 19.9811 24.7113 19.8866 24.6932 19.7874C24.6751 19.6883 24.6766 19.5866 24.6978 19.4881Z" fill="#101323"/>
<path d="M33.4065 15.8196L2.66309 29.2568L16.1003 60.0002L46.8437 46.563L33.4065 15.8196Z" fill="#FB6514"/>
<path d="M28.66 30.6525C28.8437 30.5813 29.0476 30.5834 29.2298 30.6584C29.4119 30.7334 29.5581 30.8756 29.6383 31.0555C29.7185 31.2354 29.7264 31.4393 29.6604 31.6249C29.5944 31.8104 29.4595 31.9635 29.2838 32.0524L29.2426 32.0708L14.7427 38.0293C14.5594 38.0992 14.3563 38.0962 14.1751 38.021C13.9939 37.9458 13.8485 37.804 13.7686 37.6248C13.6887 37.4456 13.6805 37.2426 13.7457 37.0576C13.8109 36.8726 13.9445 36.7195 14.119 36.6299L14.1602 36.6115L28.66 30.6525Z" fill="#101323"/>
<path d="M23.9039 39.0662C24.0886 38.9904 24.2955 38.9896 24.4807 39.064C24.666 39.1383 24.815 39.2819 24.8961 39.4642C24.9772 39.6466 24.984 39.8534 24.9151 40.0407C24.8462 40.2281 24.7071 40.3812 24.5271 40.4676L24.486 40.486L17.6836 43.2734C17.4994 43.3471 17.2939 43.3465 17.1101 43.2719C16.9263 43.1972 16.7786 43.0544 16.6979 42.8732C16.6173 42.692 16.6099 42.4866 16.6774 42.3001C16.7448 42.1136 16.8819 41.9604 17.0598 41.8728L17.101 41.8544L23.9039 39.0662Z" fill="#101323"/>
<path d="M20.5126 19.7776L20.1545 21.6188L33.0177 16.8367L43.0168 37.8065L44.8324 38.1389L33.8105 14.8164L20.5126 19.7776Z" fill="white"/>
</g>
<defs>
<clipPath id="clip0_2834_8228">
<rect width="60" height="60" fill="white"/>
</clipPath>
</defs>
</svg>
