<svg width="1247" height="712" viewBox="0 0 1247 712" fill="none" xmlns="http://www.w3.org/2000/svg">
<g clip-path="url(#clip0_2834_8242)">
<path d="M1034.6 613.901C1021.9 621.001 998.4 629.501 979 610.501C959 591.001 944.7 591.401 938 593.301C936.977 593.103 935.918 593.228 934.968 593.658C934.019 594.088 933.227 594.801 932.7 595.701L890.6 672.201C888.958 675.165 886.553 677.637 883.634 679.36C880.715 681.083 877.389 681.995 874 682.001H736.9C735.6 682.001 734.354 682.517 733.435 683.436C732.516 684.355 732 685.601 732 686.901C732 688.2 732.516 689.446 733.435 690.365C734.354 691.284 735.6 691.801 736.9 691.801H874C879.149 691.798 884.204 690.415 888.636 687.794C893.068 685.173 896.717 681.411 899.2 676.901L923.8 632.101C933 633.301 945.5 637.401 957.2 648.901C979.8 670.901 1006.3 658.501 1016 652.601C1018.38 651.158 1020.34 649.126 1021.7 646.701L1038.2 617.601C1038.52 617.097 1038.66 616.499 1038.6 615.905C1038.54 615.31 1038.28 614.754 1037.86 614.326C1037.45 613.897 1036.9 613.622 1036.31 613.545C1035.71 613.468 1035.11 613.593 1034.6 613.901Z" fill="#175CD3"/>
<path d="M354.2 525.4C354.059 525.095 353.857 524.823 353.606 524.6C353.355 524.377 353.06 524.209 352.741 524.105C352.421 524.002 352.084 523.966 351.75 523.999C351.416 524.033 351.092 524.135 350.8 524.3C350.4 524.5 346.2 527.1 327.9 536.2L319.5 540.3C279.6 559.5 220.7 583.9 196.8 573.8C196.329 573.593 195.805 573.539 195.303 573.647C194.8 573.755 194.344 574.018 194 574.4C193.9 574.5 185.3 583.8 166.5 592.6C149.2 600.7 119.4 609.9 75.8997 607.8C75.5376 607.773 75.1741 607.829 74.8372 607.964C74.5004 608.1 74.1994 608.311 73.9575 608.582C73.7157 608.853 73.5395 609.176 73.4428 609.526C73.3461 609.876 73.3313 610.244 73.3997 610.6C73.503 611.17 73.7966 611.688 74.2326 612.07C74.6685 612.451 75.221 612.674 75.7997 612.7C79.6997 612.9 83.3997 613 87.0997 613L88.8997 624.8C88.9873 625.374 89.2504 625.906 89.6527 626.324C90.0551 626.743 90.577 627.026 91.1468 627.135C91.7166 627.245 92.3064 627.175 92.8351 626.936C93.3638 626.697 93.8056 626.301 94.0997 625.8L101.7 612.6C107 612.3 112.1 611.8 117 611.2L119.8 621.4C119.96 621.951 120.283 622.441 120.725 622.806C121.167 623.171 121.709 623.395 122.28 623.449C122.851 623.503 123.425 623.384 123.928 623.108C124.431 622.832 124.839 622.411 125.1 621.9L131.1 609C135.2 608.2 139 607.3 142.6 606.4L144.9 614.9C145.06 615.451 145.383 615.941 145.825 616.306C146.267 616.671 146.809 616.895 147.38 616.949C147.951 617.003 148.525 616.884 149.028 616.608C149.531 616.332 149.939 615.911 150.2 615.4L156.4 602.2C160.553 600.754 164.626 599.085 168.6 597.2L170.2 603.1C170.36 603.651 170.683 604.141 171.125 604.506C171.567 604.871 172.109 605.095 172.68 605.149C173.251 605.203 173.825 605.084 174.328 604.808C174.831 604.532 175.239 604.111 175.5 603.6L181.7 590.2C187.125 587.035 192.16 583.242 196.7 578.9C201.8 580.7 208 581.2 215 580.8L219.2 591.2C219.409 591.725 219.773 592.174 220.244 592.487C220.714 592.8 221.269 592.962 221.834 592.951C222.399 592.94 222.948 592.757 223.406 592.426C223.865 592.096 224.211 591.633 224.4 591.1L229 579C233.4 578.2 237.9 577.2 242.5 575.9L244.4 584C244.519 584.567 244.814 585.081 245.242 585.47C245.669 585.86 246.209 586.105 246.784 586.172C247.359 586.238 247.94 586.122 248.445 585.84C248.95 585.558 249.354 585.124 249.6 584.6L256.1 571.8C260.5 570.4 264.9 568.8 269.3 567.2L271 574.5C271.128 575.052 271.418 575.553 271.833 575.938C272.248 576.323 272.769 576.575 273.329 576.661C273.889 576.747 274.461 576.664 274.973 576.421C275.485 576.178 275.912 575.788 276.2 575.3L284 561.6C287.9 560 291.8 558.4 295.7 556.7L297.6 563.7C297.76 564.251 298.083 564.741 298.525 565.106C298.967 565.471 299.509 565.695 300.08 565.749C300.651 565.803 301.225 565.684 301.728 565.408C302.231 565.132 302.639 564.711 302.9 564.2L309.1 550.8C313.3 548.9 317.3 547 321.2 545.1L322.7 550.8C322.86 551.351 323.183 551.841 323.625 552.206C324.067 552.571 324.609 552.795 325.18 552.849C325.751 552.903 326.325 552.784 326.828 552.508C327.331 552.232 327.739 551.811 328 551.3L333.7 539.1C349.2 531.3 352.1 529.5 353.6 528.7C353.997 528.261 354.264 527.719 354.37 527.136C354.476 526.553 354.417 525.952 354.2 525.4Z" fill="#175CD3"/>
<path d="M473.3 490.101C472.829 489.894 472.306 489.84 471.803 489.948C471.3 490.056 470.844 490.319 470.5 490.701C470.4 490.801 461.8 500.101 443 508.901C425.7 517.001 395.9 526.201 352.4 524.101C352.038 524.073 351.674 524.129 351.337 524.265C351.001 524.401 350.7 524.612 350.458 524.883C350.216 525.154 350.04 525.477 349.943 525.827C349.846 526.177 349.832 526.544 349.9 526.901C350.003 527.471 350.297 527.989 350.733 528.371C351.169 528.752 351.721 528.974 352.3 529.001C356.2 529.201 359.9 529.301 363.6 529.301L365.3 540.901C365.392 541.497 365.667 542.05 366.087 542.483C366.508 542.916 367.052 543.207 367.645 543.317C368.238 543.427 368.851 543.35 369.398 543.096C369.946 542.842 370.4 542.425 370.7 541.901L378.1 528.901C383.4 528.601 388.5 528.101 393.4 527.501L396.1 537.501C396.257 538.068 396.583 538.574 397.034 538.952C397.486 539.329 398.041 539.56 398.627 539.615C399.213 539.669 399.802 539.544 400.315 539.255C400.828 538.967 401.241 538.53 401.5 538.001L407.4 525.301C411.5 524.501 415.3 523.601 418.9 522.701L422.1 532.301C422.29 532.874 422.653 533.375 423.139 533.733C423.625 534.091 424.211 534.289 424.814 534.3C425.418 534.311 426.011 534.134 426.51 533.794C427.009 533.454 427.39 532.967 427.6 532.401L432.7 518.501C436.853 517.054 440.926 515.385 444.9 513.501L446.4 519.201C446.557 519.768 446.883 520.274 447.334 520.652C447.786 521.029 448.341 521.26 448.927 521.315C449.513 521.369 450.102 521.244 450.615 520.955C451.128 520.667 451.541 520.23 451.8 519.701L457.9 506.601C463.326 503.435 468.36 499.643 472.9 495.301" fill="#175CD3"/>
<path d="M1110.4 546.101C1110.29 545.792 1110.12 545.509 1109.9 545.269C1109.67 545.029 1109.4 544.837 1109.1 544.706C1108.8 544.575 1108.48 544.506 1108.15 544.506C1107.82 544.505 1107.5 544.571 1107.2 544.701C1068.7 560.801 1028.2 552.701 986.9 520.801C955.8 496.801 936 467.501 935.8 467.301C935.427 466.775 934.869 466.411 934.238 466.281C933.607 466.151 932.95 466.265 932.4 466.601C931.874 466.974 931.51 467.532 931.38 468.163C931.25 468.794 931.364 469.451 931.7 470.001C936.67 477.163 942.08 484.01 947.9 490.501L952.8 514.001C952.92 514.567 953.208 515.085 953.626 515.486C954.044 515.887 954.573 516.153 955.144 516.25C955.715 516.347 956.303 516.27 956.829 516.03C957.356 515.789 957.799 515.396 958.1 514.901L963 506.601C967.2 510.701 971.7 514.801 976.5 518.801L981.7 536.901C981.856 537.433 982.164 537.909 982.585 538.27C983.006 538.632 983.523 538.863 984.073 538.937C984.623 539.011 985.182 538.925 985.684 538.687C986.186 538.45 986.608 538.073 986.9 537.601L991.5 530.401C995.6 533.301 999.7 535.901 1003.9 538.401L1011.1 558.701C1011.28 559.216 1011.61 559.669 1012.04 560.005C1012.48 560.342 1013 560.548 1013.54 560.6C1014.09 560.653 1014.64 560.549 1015.12 560.301C1015.61 560.053 1016.02 559.672 1016.3 559.201L1022.7 548.001C1026.58 549.654 1030.56 551.09 1034.6 552.301L1044 568.701C1044.29 569.188 1044.71 569.582 1045.21 569.835C1045.72 570.088 1046.28 570.189 1046.85 570.125C1047.41 570.062 1047.94 569.836 1048.37 569.477C1048.81 569.118 1049.13 568.64 1049.3 568.101L1052.8 556.401C1057.87 557.115 1062.98 557.483 1068.1 557.501H1069.3L1079.4 570.701C1079.73 571.125 1080.17 571.45 1080.68 571.638C1081.18 571.826 1081.73 571.871 1082.26 571.767C1082.79 571.664 1083.27 571.416 1083.67 571.051C1084.07 570.686 1084.35 570.219 1084.5 569.701L1088.6 555.401C1095.52 553.993 1102.28 551.916 1108.8 549.201C1109.42 549.001 1109.94 548.563 1110.24 547.982C1110.54 547.401 1110.6 546.724 1110.4 546.101Z" fill="#175CD3"/>
<path d="M75.3999 607.101C76.1651 607.101 76.9014 607.393 77.4582 607.918C78.0149 608.443 78.35 609.161 78.3949 609.925L78.3999 610.101V708.901C78.4007 709.681 78.0969 710.432 77.5531 710.992C77.0094 711.553 76.2685 711.879 75.4879 711.902C74.7074 711.925 73.9486 711.643 73.3729 711.115C72.7972 710.588 72.45 709.856 72.4049 709.077L72.3999 708.901V610.101C72.3999 609.305 72.716 608.542 73.2786 607.979C73.8412 607.417 74.6043 607.101 75.3999 607.101Z" fill="#EC4A0A"/>
<path d="M195.7 573.101C196.465 573.101 197.201 573.393 197.758 573.918C198.315 574.443 198.65 575.161 198.695 575.925L198.7 576.101V707.301C198.7 708.081 198.397 708.832 197.853 709.392C197.309 709.953 196.568 710.279 195.788 710.302C195.007 710.325 194.248 710.043 193.673 709.515C193.097 708.988 192.75 708.256 192.705 707.477L192.7 707.301V576.101C192.7 575.305 193.016 574.542 193.578 573.979C194.141 573.417 194.904 573.101 195.7 573.101Z" fill="#EC4A0A"/>
<path d="M352.3 523.301C353.065 523.301 353.801 523.593 354.358 524.118C354.915 524.643 355.25 525.361 355.295 526.125L355.3 526.301V707.101C355.301 707.882 354.997 708.632 354.453 709.193C353.909 709.753 353.168 710.079 352.388 710.102C351.607 710.125 350.849 709.843 350.273 709.315C349.697 708.788 349.35 708.056 349.305 707.277L349.3 707.101V526.301C349.3 525.505 349.616 524.742 350.178 524.179C350.741 523.617 351.504 523.301 352.3 523.301Z" fill="#EC4A0A"/>
<path d="M1108.4 543.501C1109.17 543.501 1109.9 543.793 1110.46 544.318C1111.01 544.843 1111.35 545.561 1111.39 546.325L1111.4 546.501V708.901C1111.4 709.682 1111.1 710.432 1110.55 710.993C1110.01 711.553 1109.27 711.88 1108.49 711.903C1107.71 711.925 1106.95 711.643 1106.37 711.116C1105.8 710.588 1105.45 709.857 1105.4 709.077L1105.4 708.901V546.501C1105.4 545.705 1105.72 544.942 1106.28 544.38C1106.84 543.817 1107.6 543.501 1108.4 543.501Z" fill="#EC4A0A"/>
<path d="M924.4 454.599L562.4 456.999C559.688 456.934 557.008 457.607 554.648 458.945C552.288 460.284 550.336 462.238 549 464.599L432.2 677.099L135.4 677.299C135.4 677.299 130.3 707.099 173 708.899L813 708.099L938 473.599C942.8 464.699 935.4 454.499 924.4 454.599Z" fill="#FB6514"/>
<path d="M469.4 676.199L775.1 674.899L869.7 490.599C873.4 483.499 868.5 474.899 860.9 474.999L583.1 478.399L469.4 676.199Z" fill="white"/>
<path d="M894.473 454.8C907.573 454.683 916.503 466.912 911.016 477.884L910.845 478.216L787.045 709.516C786.677 710.203 786.056 710.72 785.313 710.957C784.57 711.194 783.764 711.133 783.066 710.786C782.368 710.439 781.832 709.834 781.572 709.099C781.312 708.364 781.349 707.556 781.674 706.848L781.755 706.684L905.547 475.4C909.131 468.612 903.456 460.72 894.527 460.8C893.731 460.807 892.965 460.498 892.398 459.94C891.83 459.383 891.507 458.622 891.5 457.827C891.493 457.031 891.802 456.265 892.36 455.697C892.917 455.13 893.677 454.807 894.473 454.8Z" fill="white"/>
<path d="M485.7 548.9L519.2 610.5C519.557 611.123 520.109 611.61 520.771 611.887C521.433 612.164 522.168 612.216 522.862 612.034C523.556 611.852 524.171 611.446 524.611 610.88C525.052 610.313 525.294 609.618 525.3 608.9L523.1 580.9C523.1 580.9 542.7 648.3 569.6 650C596.5 651.7 622.3 579 622.3 579L615.2 609.5C615.196 610.223 615.432 610.927 615.872 611.5C616.312 612.073 616.93 612.484 617.629 612.668C618.328 612.851 619.068 612.796 619.733 612.513C620.398 612.229 620.949 611.732 621.3 611.1L657.1 548.9" fill="#FDB022"/>
<path d="M443.8 310.7C443.8 310.7 363.9 418.9 374.2 515.7H550.5V308.4L443.8 310.7Z" fill="#175CD3"/>
<path d="M695 310.7C695 310.7 774.9 418.9 764.6 515.7H588.3V308.4L695 310.7Z" fill="#175CD3"/>
<path d="M641.3 515.7C709 394 701.6 297.4 681.9 231.2C662.1 165 615.7 91.2002 571.6 91.2002C527.5 91.2002 481.1 165 461.3 231.2C441.5 297.4 433.2 394 500.9 515.7L482 556.5H660.5L641.3 515.7Z" fill="white"/>
<path d="M660.501 559.5H482C481.496 559.5 481 559.373 480.558 559.131C480.116 558.889 479.742 558.54 479.471 558.115C479.2 557.69 479.04 557.204 479.006 556.701C478.972 556.199 479.066 555.695 479.278 555.238L497.538 515.82L496.412 513.774C488.941 500.114 482.183 486.316 476.326 472.763C470.633 459.624 465.604 446.207 461.257 432.563C457.141 419.613 453.724 406.452 451.021 393.135C448.436 380.358 446.571 367.447 445.432 354.461L445.299 352.882C444.424 342.236 444.057 331.516 444.207 321.021C444.355 310.721 445.007 300.314 446.143 290.091C447.256 280.083 448.869 269.932 450.943 259.922C452.963 250.151 455.482 240.199 458.43 230.341C468.804 195.657 485.75 160.761 504.922 134.602C515.822 119.731 526.993 108.209 538.122 100.357C549.561 92.2902 560.825 88.2002 571.601 88.2002C582.377 88.2002 593.64 92.2902 605.074 100.357C616.208 108.209 627.379 119.73 638.274 134.602C657.447 160.762 674.393 195.658 684.767 230.345C687.68 240.134 690.167 250.045 692.145 259.805C694.174 269.791 695.745 279.936 696.814 289.959C697.905 300.19 698.509 310.615 698.607 320.945C698.707 331.468 698.286 342.219 697.355 352.9C696.203 365.993 694.316 379.012 691.703 391.893C688.966 405.332 685.51 418.614 681.349 431.682C676.951 445.464 671.865 459.017 666.11 472.29C660.187 485.984 653.354 499.93 645.801 513.739L644.659 515.812L663.207 555.225C663.42 555.669 663.519 556.158 663.495 556.65C663.47 557.141 663.324 557.619 663.069 558.039C662.819 558.46 662.469 558.814 662.051 559.068C661.632 559.322 661.158 559.47 660.669 559.498L660.501 559.5ZM571.601 94.2002C561.937 94.2002 551.658 98.0532 541.05 105.651C530.611 113.128 520.083 124.061 509.759 138.151C490.974 163.775 474.36 198 464.174 232.06C452.148 272.269 447.93 311.63 451.274 352.392C455.618 405.278 473.195 459.732 503.518 514.242C503.747 514.656 503.875 515.117 503.893 515.59C503.91 516.062 503.816 516.532 503.618 516.961L486.695 553.5H655.774L638.588 516.977C638.4 516.578 638.302 516.142 638.302 515.701C638.302 515.26 638.4 514.824 638.588 514.425L638.682 514.242C669.057 459.642 686.791 405.179 691.391 352.377C695.011 311.85 690.813 271.004 679.026 232.06C668.84 198.005 652.226 163.776 633.443 138.149C623.118 124.062 612.59 113.129 602.151 105.649C591.543 98.0532 581.265 94.2002 571.601 94.2002Z" fill="#D0D5DD"/>
<path d="M571.6 341.601C599.435 341.601 622 314.738 622 281.601C622 248.464 599.435 221.601 571.6 221.601C543.765 221.601 521.2 248.464 521.2 281.601C521.2 314.738 543.765 341.601 571.6 341.601Z" fill="#175CD3"/>
<path d="M571.6 368.601C576.239 368.601 580 364.123 580 358.601C580 353.078 576.239 348.601 571.6 348.601C566.961 348.601 563.2 353.078 563.2 358.601C563.2 364.123 566.961 368.601 571.6 368.601Z" fill="#175CD3"/>
<path d="M604 368.601C608.639 368.601 612.4 364.123 612.4 358.601C612.4 353.078 608.639 348.601 604 348.601C599.361 348.601 595.6 353.078 595.6 358.601C595.6 364.123 599.361 368.601 604 368.601Z" fill="#175CD3"/>
<path d="M536.7 368.601C541.339 368.601 545.1 364.123 545.1 358.601C545.1 353.078 541.339 348.601 536.7 348.601C532.061 348.601 528.3 353.078 528.3 358.601C528.3 364.123 532.061 368.601 536.7 368.601Z" fill="#175CD3"/>
<path d="M571.6 321C592.642 321 609.7 300.719 609.7 275.7C609.7 250.682 592.642 230.4 571.6 230.4C550.558 230.4 533.5 250.682 533.5 275.7C533.5 300.719 550.558 321 571.6 321Z" fill="white"/>
<path d="M571.6 324C566.025 324 560.528 322.696 555.549 320.19C550.535 317.657 546.091 314.126 542.491 309.814C538.664 305.265 535.69 300.063 533.712 294.457C529.429 282.319 529.429 269.081 533.712 256.943C535.69 251.337 538.664 246.134 542.491 241.585C546.091 237.273 550.535 233.743 555.549 231.21C560.528 228.705 566.025 227.4 571.599 227.4C577.173 227.4 582.669 228.705 587.649 231.21C592.664 233.743 597.108 237.274 600.709 241.586C604.535 246.136 607.509 251.338 609.487 256.944C613.77 269.082 613.77 282.32 609.487 294.458C607.509 300.064 604.535 305.266 600.709 309.815C597.108 314.127 592.665 317.658 587.651 320.19C582.671 322.696 577.174 324 571.6 324ZM571.6 233.4C552.246 233.4 536.5 252.376 536.5 275.7C536.5 299.024 552.246 318 571.6 318C590.954 318 606.7 299.025 606.7 275.7C606.7 252.375 590.955 233.4 571.6 233.4Z" fill="#D0D5DD"/>
<path d="M580.5 89.5004V17.9004C581.86 16.0053 582.594 13.7329 582.6 11.4004C582.6 8.48301 581.441 5.68512 579.378 3.62222C577.315 1.55932 574.517 0.400391 571.6 0.400391C568.682 0.400391 565.885 1.55932 563.822 3.62222C561.759 5.68512 560.6 8.48301 560.6 11.4004C560.606 13.7329 561.34 16.0053 562.7 17.9004V89.4004C544.2 93.2004 525.7 108.7 508.8 129.5C530.767 124.554 553.324 122.736 575.8 124.1C596.422 125.201 616.903 128.146 637 132.9C619.5 110.5 599.9 93.7004 580.5 89.5004Z" fill="#175CD3"/>
<path d="M653.7 169.7C631.6 162.3 606.2 155.8 572.1 154.5C537.3 153.2 510.9 161 489.2 169.5C479.882 186.66 472.15 204.634 466.1 223.2C492.1 210.5 524 197.1 572.9 198C619.4 198.8 651.4 209.1 675.7 219.9C669.804 202.573 662.444 185.779 653.7 169.7Z" fill="#175CD3"/>
<path d="M638.7 515.2C641.9 509.4 645 503.7 647.9 498C632.6 491.8 610.6 486.6 571.5 487C532 486.7 509.9 492 494.6 498.3C497.5 503.9 500.5 509.6 503.6 515.3C503.6 515.3 538.3 508.5 571.4 508.8C604 508.5 638.7 515.2 638.7 515.2Z" fill="#175CD3"/>
<path d="M823.1 674.901H665.9C665.9 674.901 643.3 654.601 653.7 638.001C664.1 621.401 691.4 617.401 700.3 634.201C700.3 634.201 704.2 602.101 737.1 604.601C770.1 607.101 767.5 641.401 767.5 641.401C767.5 641.401 809.2 611.901 808.1 658.001C808 657.901 810.6 674.901 823.1 674.901Z" fill="white"/>
<path d="M823.1 677.902H665.9C665.16 677.901 664.446 677.628 663.895 677.133C663.587 676.856 662.912 676.233 661.85 675.133L661.39 674.652C659.463 672.624 657.667 670.477 656.011 668.224C653.392 664.752 651.271 660.931 649.711 656.872C648.33 653.278 647.763 649.423 648.051 645.585C648.344 642.322 649.41 639.177 651.161 636.409C654.364 631.371 658.846 627.274 664.15 624.535C669.214 621.86 674.85 620.447 680.577 620.417C683.91 620.393 687.222 620.945 690.367 622.047C693.433 623.118 696.241 624.822 698.607 627.047L698.875 627.308L699.101 626.624C700.066 623.763 701.326 621.011 702.861 618.412L703.261 617.752C706.241 612.782 710.45 608.663 715.483 605.791C721.003 602.825 727.196 601.333 733.461 601.46C734.718 601.46 736.019 601.51 737.328 601.61L737.861 601.653C745.061 602.274 751.224 604.378 756.178 607.905C761.015 611.418 764.772 616.215 767.025 621.753C768.641 625.615 769.706 629.686 770.187 633.845C770.277 634.586 770.351 635.315 770.406 636.012V636.058L771.039 635.702C771.791 635.283 772.571 634.866 773.358 634.465L774.158 634.065C778.3 631.931 782.728 630.402 787.304 629.525C788.886 629.247 790.489 629.103 792.095 629.095C797.195 629.095 801.352 630.708 804.467 633.889C809.108 638.63 811.341 646.7 811.103 657.874L811.119 657.974L811.199 658.391C811.287 658.824 811.405 659.319 811.54 659.824C812.018 661.627 812.688 663.374 813.54 665.035C815.94 669.658 819.068 671.905 823.103 671.905L823.303 671.91C824.066 671.956 824.782 672.291 825.306 672.848C825.83 673.404 826.121 674.14 826.121 674.904C826.121 675.668 825.83 676.404 825.306 676.96C824.782 677.517 824.066 677.852 823.303 677.899L823.103 677.904L823.1 677.902ZM680.499 626.433C675.682 626.448 670.945 627.658 666.711 629.955C662.478 632.252 658.881 635.564 656.242 639.594C654.989 641.56 654.229 643.8 654.027 646.123C653.535 651.583 655.827 657.823 660.852 664.677C662.358 666.726 663.991 668.678 665.743 670.522C666.097 670.896 666.457 671.265 666.843 671.65L667.097 671.9H810.873L810.5 671.428C809.711 670.389 809.006 669.289 808.393 668.138L808.213 667.796C807.163 665.751 806.336 663.6 805.747 661.379C805.547 660.65 805.381 659.915 805.256 659.255L805.222 659.07C805.19 658.893 805.164 658.731 805.145 658.589L805.124 658.431L805.104 658.208V657.853V657.753L805.12 656.833C805.2 647.833 803.539 641.551 800.184 638.162L799.997 637.978C797.813 635.995 794.931 634.96 791.984 635.1C790.755 635.108 789.528 635.22 788.318 635.434C784.313 636.214 780.441 637.563 776.818 639.44C774.951 640.363 773.097 641.391 771.309 642.497C770.975 642.704 770.644 642.913 770.324 643.119L769.624 643.578L769.09 643.941C768.617 644.242 768.069 644.403 767.508 644.405C767.09 644.403 766.677 644.315 766.294 644.147C765.911 643.979 765.567 643.734 765.283 643.427C765.004 643.125 764.79 642.769 764.656 642.381C764.523 641.992 764.471 641.58 764.506 641.171L764.519 640.924L764.535 640.485C764.578 638.508 764.474 636.53 764.225 634.569C763.812 630.969 762.894 627.446 761.5 624.102C757.161 613.921 749.103 608.519 736.872 607.593C735.708 607.504 734.561 607.46 733.448 607.46C722.327 607.46 713.886 611.985 708.361 620.912C706.551 623.864 705.155 627.051 704.213 630.384C703.904 631.458 703.651 632.503 703.462 633.492C703.385 633.892 703.339 634.17 703.313 634.333L703.255 634.74C703.134 635.438 702.768 636.07 702.223 636.522C701.677 636.974 700.988 637.216 700.279 637.205C699.736 637.207 699.203 637.059 698.739 636.776C698.275 636.494 697.899 636.088 697.652 635.605L697.424 635.19C694.261 629.625 688.097 626.432 680.499 626.433Z" fill="#D0D5DD"/>
<path d="M322.6 675.201H479.8C479.8 675.201 502.4 654.901 492 638.301C481.6 621.701 454.3 617.701 445.4 634.501C445.4 634.501 441.5 602.401 408.6 604.901C375.6 607.401 378.2 641.701 378.2 641.701C378.2 641.701 336.5 612.201 337.6 658.301C337.7 658.201 335.1 675.101 322.6 675.201Z" fill="white"/>
<path d="M479.8 678.201H322.6C321.804 678.204 321.04 677.891 320.475 677.331C319.91 676.77 319.591 676.009 319.588 675.213C319.585 674.417 319.898 673.653 320.459 673.088C321.019 672.523 321.781 672.204 322.577 672.201L322.888 672.194C326.688 672.051 329.67 669.9 331.988 665.617L332.161 665.291C333.012 663.639 333.682 661.9 334.161 660.103C334.32 659.514 334.455 658.937 334.551 658.435L334.6 658.169L334.592 657.709C334.425 646.747 336.673 638.821 341.273 634.151C344.384 630.993 348.534 629.391 353.61 629.391C355.064 629.398 356.515 629.517 357.951 629.747L358.401 629.821C362.976 630.698 367.401 632.227 371.542 634.359C372.582 634.873 373.632 635.425 374.661 635.998L375.293 636.354L375.342 635.781C375.377 635.397 375.413 635.042 375.452 634.697L375.517 634.142C375.998 629.983 377.063 625.913 378.679 622.05C380.958 616.446 384.78 611.603 389.7 608.082C394.744 604.543 401.027 602.466 408.373 601.909L408.924 601.869C410.043 601.796 411.158 601.759 412.239 601.759C418.504 601.633 424.697 603.124 430.217 606.09C435.251 608.962 439.462 613.082 442.443 618.052C444.161 620.843 445.555 623.82 446.6 626.926L446.826 627.61L447.095 627.349C449.461 625.124 452.269 623.421 455.335 622.349C458.48 621.247 461.791 620.695 465.124 620.718C470.742 620.748 476.274 622.109 481.266 624.687C486.487 627.328 490.936 631.274 494.18 636.143L494.542 636.708C496.292 639.477 497.357 642.622 497.649 645.884C497.937 649.723 497.37 653.578 495.989 657.171C494.429 661.231 492.308 665.052 489.689 668.523C488.034 670.778 486.237 672.925 484.311 674.952C483.188 676.135 482.411 676.873 482.051 677.208L481.805 677.432C481.255 677.928 480.54 678.202 479.8 678.201ZM353.717 635.402C350.769 635.261 347.885 636.296 345.7 638.279C342.219 641.619 340.5 647.963 340.576 657.133L340.59 658.045L340.596 658.165V658.509L340.575 658.732L340.555 658.89C340.542 658.979 340.526 659.084 340.507 659.196L340.442 659.554C340.319 660.2 340.149 660.931 339.951 661.668C339.361 663.881 338.534 666.024 337.486 668.059C336.737 669.516 335.841 670.893 334.814 672.169L334.791 672.197H478.6C478.77 672.031 478.944 671.858 479.117 671.682L479.668 671.118L479.955 670.818C481.707 668.975 483.34 667.023 484.846 664.973C489.866 658.121 492.162 651.878 491.671 646.419C491.469 644.096 490.709 641.857 489.456 639.89C486.817 635.861 483.22 632.55 478.987 630.253C474.753 627.957 470.016 626.747 465.2 626.732C457.39 626.732 451.139 630.075 448.05 635.905L447.963 636.06C447.705 636.504 447.334 636.872 446.888 637.125C446.442 637.379 445.936 637.509 445.423 637.503C444.685 637.512 443.97 637.247 443.416 636.759C442.862 636.271 442.508 635.596 442.423 634.862L442.374 634.525L442.243 633.791C442.053 632.802 441.8 631.757 441.492 630.683C440.55 627.351 439.154 624.164 437.344 621.211C431.814 612.284 423.372 607.759 412.251 607.759C411.143 607.759 409.991 607.804 408.827 607.892L408.304 607.935C396.362 608.978 388.476 614.366 384.2 624.405C382.805 627.749 381.888 631.273 381.475 634.872C381.208 636.945 381.108 639.035 381.175 641.123L381.201 641.64C381.212 642.036 381.144 642.43 381 642.798C380.856 643.167 380.639 643.503 380.362 643.785C380.079 644.075 379.742 644.306 379.369 644.464C378.996 644.622 378.596 644.704 378.191 644.706C377.573 644.704 376.971 644.509 376.469 644.148L376.075 643.879L375.375 643.42L375.301 643.372L375.064 643.22L374.391 642.798C372.608 641.698 370.755 640.666 368.883 639.741C365.26 637.865 361.387 636.516 357.383 635.735C356.172 635.522 354.946 635.41 353.717 635.402Z" fill="#D0D5DD"/>
<path d="M1244 705.9C1244.78 705.9 1245.53 706.203 1246.09 706.747C1246.65 707.291 1246.98 708.032 1247 708.812C1247.02 709.593 1246.74 710.352 1246.21 710.927C1245.69 711.503 1244.96 711.85 1244.18 711.895L1244 711.9H2.99996C2.21906 711.901 1.46863 711.597 0.908146 711.054C0.347657 710.51 0.0212795 709.769 -0.00163632 708.988C-0.0245521 708.208 0.2578 707.449 0.785424 706.873C1.31305 706.298 2.04436 705.95 2.82396 705.905L2.99996 705.9H1244Z" fill="#101323"/>
</g>
<defs>
<clipPath id="clip0_2834_8242">
<rect width="1247" height="711.9" fill="white"/>
</clipPath>
</defs>
</svg>
