<svg width="1226" height="710" viewBox="0 0 1226 710" fill="none" xmlns="http://www.w3.org/2000/svg">
<g clip-path="url(#clip0_2834_8280)">
<path d="M459.1 468.5C449.5 463.4 441.3 465.8 432.3 475.4C436.4 452.2 436.3 424.1 417.9 419.4C399 414.5 388.3 426.3 377.2 454.8C377.6 430.4 372.8 398.9 352.6 397.6C329.9 396.2 322.3 414.9 316.7 456.4C309.6 433.2 290.1 392.5 267.1 400.6C244.6 408.5 246.1 430.2 258.6 474.4C246.3 455.3 221.6 426.9 205.1 437.7C189.4 447.9 193.7 464.6 211.1 495.6C199.6 490.6 187.7 490.1 178.1 499.5C156.6 520.7 167 540.8 196.7 578.1C226.5 615.4 440.4 549.4 450.5 532.6C460.7 515.7 476.6 477.9 459.1 468.5Z" fill="white"/>
<path d="M237.895 592.415H237.887C215.597 592.415 200.95 588.227 194.353 579.97C187.455 571.52 180.999 562.719 175.011 553.602C170.354 546.275 167.345 540.153 165.542 534.337L165.322 533.609C163.295 526.722 163.161 520.496 164.895 514.574C166.639 508.635 170.271 503.003 175.995 497.357C178.587 494.711 181.684 492.612 185.102 491.186C188.521 489.761 192.191 489.037 195.895 489.058C198.796 489.077 201.684 489.448 204.495 490.163L204.747 490.227L204.311 489.406C197.468 476.455 193.911 467.28 192.782 459.657L192.725 459.257C191.988 453.92 192.492 449.386 194.265 445.397C196.253 441.158 199.455 437.604 203.465 435.187C206.333 433.281 209.703 432.27 213.146 432.28C219.704 432.283 227.176 435.728 235.345 442.528C241.164 447.514 246.486 453.053 251.236 459.066L251.494 459.387L251.294 458.561C247.56 443.228 246.146 432.582 246.706 424.053L246.771 423.185C247.32 416.618 249.13 411.385 252.304 407.203C255.494 402.996 260.004 399.91 266.104 397.77C268.382 396.957 270.782 396.537 273.201 396.528C278.242 396.658 283.119 398.346 287.162 401.36C292.279 405.143 296.721 409.761 300.302 415.021C306.494 424.015 311.596 433.712 315.502 443.908L315.524 443.966L315.704 442.899C318.332 427.455 321.332 417.245 325.429 409.799L325.622 409.453C328.01 404.871 331.563 400.999 335.922 398.226C340.275 395.672 345.258 394.391 350.303 394.528C351.111 394.528 351.949 394.554 352.793 394.606C357.994 394.912 362.893 397.148 366.532 400.876C370.225 404.549 373.232 409.838 375.473 416.594C377.926 424.488 379.395 432.655 379.847 440.909L379.86 441.084L380.219 440.35C384.528 431.636 388.926 425.433 393.662 421.388C398.114 417.412 403.885 415.233 409.853 415.275C412.617 415.303 415.368 415.661 418.047 416.342L418.647 416.492C423.403 417.672 427.59 420.492 430.471 424.455C433.371 428.355 435.398 433.571 436.499 439.955C437.799 447.52 437.829 456.655 436.573 467.113L436.512 467.613L436.932 467.313C440.599 464.532 445.051 462.981 449.652 462.883C453.328 462.947 456.933 463.903 460.157 465.669L460.524 465.862C462.804 467.067 464.769 468.791 466.259 470.895C467.757 473.087 468.794 475.559 469.308 478.163C470.455 483.545 470.051 490.368 468.108 498.444C465.446 509.515 459.685 523.197 453.074 534.151C451.655 536.512 447.197 539.568 439.825 543.233C430.762 547.58 421.472 551.438 411.995 554.79C385.681 564.181 358.869 572.115 331.681 578.557C312.798 583.057 295.342 586.516 279.799 588.835C265.936 591.04 251.931 592.236 237.895 592.415ZM195.953 495.063C193.022 495.048 190.118 495.622 187.413 496.752C184.708 497.881 182.258 499.542 180.207 501.636C170.407 511.296 167.681 520.352 171.079 531.917C174.061 542.066 181.337 553.777 197.03 573.686L199.044 576.228C201.744 579.612 206.444 582.189 213.014 583.89C219.4 585.543 227.602 586.382 237.393 586.382C260.677 586.382 292.8 581.658 330.293 572.72C357.185 566.333 383.71 558.488 409.75 549.22C420.202 545.42 429.355 541.681 436.22 538.395C442.92 535.187 446.971 532.646 447.933 531.047C454.25 520.579 459.745 507.547 462.272 497.033C463.887 490.315 464.327 484.701 463.578 480.348C462.819 475.932 460.839 472.836 457.694 471.148C455.24 469.74 452.474 468.966 449.645 468.893C444.96 468.893 440.354 471.393 435.145 476.759L434.485 477.451C434.213 477.753 433.88 477.995 433.509 478.16C433.137 478.325 432.735 478.41 432.328 478.41C431.879 478.408 431.435 478.308 431.028 478.118C430.621 477.928 430.26 477.653 429.969 477.31C429.691 476.977 429.49 476.586 429.382 476.166C429.273 475.745 429.26 475.306 429.342 474.88C431.881 460.512 432.202 448.18 430.271 439.205C428.223 429.694 423.807 424.005 417.143 422.305C414.861 421.683 412.508 421.356 410.143 421.331C403.962 421.331 398.852 423.916 394.062 429.465C389.37 434.901 384.9 443.298 379.995 455.889C379.793 456.456 379.418 456.946 378.924 457.289C378.429 457.633 377.839 457.813 377.237 457.804C376.826 457.806 376.418 457.727 376.037 457.571C375.657 457.415 375.311 457.185 375.019 456.895C374.744 456.612 374.53 456.276 374.389 455.907C374.248 455.539 374.183 455.145 374.199 454.751C374.457 439.098 372.695 425.844 369.095 416.42C365.319 406.528 359.552 401.054 352.416 400.595C351.685 400.55 350.964 400.528 350.275 400.528C341.245 400.528 335.152 404.37 330.518 412.986C325.964 421.456 322.618 434.969 319.673 456.802C319.586 457.529 319.232 458.197 318.68 458.677C318.128 459.158 317.417 459.416 316.685 459.402C316.042 459.414 315.412 459.212 314.896 458.828C314.379 458.444 314.005 457.899 313.831 457.279C309.459 442.994 302.578 428.501 295.423 418.511C287.848 407.931 280.323 402.567 273.068 402.567C271.374 402.57 269.692 402.861 268.095 403.428C258.305 406.866 253.724 412.811 252.777 423.307C251.844 433.654 254.449 448.69 261.488 473.582C261.624 474.019 261.654 474.482 261.577 474.933C261.5 475.384 261.317 475.81 261.043 476.177C260.747 476.559 260.369 476.869 259.936 477.084C259.502 477.298 259.026 477.411 258.543 477.415C258.047 477.417 257.56 477.29 257.128 477.046C256.696 476.803 256.334 476.453 256.078 476.028C248.997 465.028 241.286 455.689 233.778 449.006C225.983 442.068 218.818 438.406 213.056 438.406C210.816 438.374 208.617 439.007 206.736 440.224C200.065 444.558 197.568 450.124 198.636 458.288C199.7 466.4 204.351 477.457 213.715 494.141C213.978 494.591 214.116 495.104 214.114 495.625C214.112 496.147 213.969 496.658 213.702 497.106C213.34 497.753 212.75 498.24 212.046 498.472C211.343 498.705 210.578 498.665 209.902 498.361C205.526 496.323 200.779 495.2 195.953 495.063Z" fill="#EC4A0A"/>
<path d="M460.8 531.8L461 531.2L173.3 532.1L173.5 532.7C165.964 534.173 159.289 538.502 154.872 544.783C150.455 551.064 148.637 558.81 149.8 566.4L171.3 705.2L462.9 704.3L484.4 565.5C485.59 557.921 483.796 550.176 479.395 543.892C474.994 537.608 468.329 533.274 460.8 531.8Z" fill="#FEB273"/>
<path d="M932 481.8C927.522 481.815 923.048 482.082 918.6 482.6C894.7 449.6 867.3 421.6 838.5 403.8C763.5 357.6 660.5 370.8 564.4 406.4C498.3 430.8 414.6 509.6 360.9 565.4C290.9 570.7 237.1 618.3 240.3 672.8C241.032 684.499 244.309 695.898 249.9 706.2L484.8 707.8C485.2 707.2 485.6 706.5 486 705.9L834.4 704.7C834.8 705.2 835.2 705.7 835.6 706.3L1028.5 706C1046.4 682.3 1057.1 652 1057.1 618.9C1057.1 543.1 1001.1 481.8 932 481.8Z" fill="#175CD3"/>
<path d="M845.4 408.3C756.7 463.3 677.1 464.5 625.5 455.6C577.7 447.4 543.2 429 532 421.8C530.1 422.9 528.2 424 526.2 425.1C535.4 431.4 571.4 452.2 623.4 461.3C640.336 464.295 657.501 465.8 674.7 465.8C692.268 465.812 709.803 464.273 727.1 461.2C769.2 453.7 810.7 437.2 850.7 412.1C848.9 410.7 847.2 409.5 845.4 408.3Z" fill="white"/>
<path d="M836.2 502.795C850.3 482.995 867.7 471.895 888 469.695C895.36 468.935 902.795 469.408 910 471.095C908.1 468.695 906.2 466.295 904.3 463.995C898.794 463.265 893.221 463.198 887.7 463.795C872.4 465.395 850.2 472.795 831.3 499.395C830.843 500.047 830.661 500.853 830.792 501.638C830.923 502.423 831.356 503.126 832 503.595C832.481 503.983 833.081 504.194 833.7 504.195C834.196 504.17 834.68 504.03 835.113 503.787C835.547 503.545 835.919 503.205 836.2 502.795Z" fill="white"/>
<path d="M837.3 573.1C838.09 573.107 838.852 572.809 839.429 572.269C840.006 571.73 840.353 570.989 840.4 570.2C840.6 561.4 844.1 541.4 856.4 522.6C870.6 500.7 891.6 487.3 918.6 482.5C917.3 480.7 916 478.9 914.6 477.1C887.6 482.6 865.8 497.1 851.3 519.3C839.2 537.9 834.6 558.3 834.3 570C834.29 570.401 834.361 570.8 834.507 571.174C834.654 571.548 834.873 571.889 835.152 572.177C835.431 572.465 835.764 572.696 836.133 572.854C836.502 573.012 836.898 573.096 837.3 573.1Z" fill="white"/>
<path d="M413.6 543.6C402.236 543.122 390.857 543.995 379.7 546.2C376.7 549.2 373.7 552.2 370.8 555.2C381.9 549.1 445.1 541.5 471.2 571.2C471.484 571.528 471.838 571.789 472.236 571.962C472.634 572.135 473.066 572.216 473.5 572.2C474.228 572.213 474.938 571.965 475.5 571.5C476.091 570.98 476.454 570.248 476.51 569.462C476.566 568.676 476.311 567.9 475.8 567.3C458.9 548 429.6 544.2 413.6 543.6Z" fill="white"/>
<path d="M358.9 565.6H359.1C359.087 565.587 359.071 565.576 359.054 565.569C359.037 565.561 359.018 565.558 359 565.558C358.981 565.558 358.963 565.561 358.945 565.569C358.928 565.576 358.913 565.587 358.9 565.6Z" fill="white"/>
<path d="M465 586.5C429.7 559.8 385.7 558.2 367.1 559C365 561.2 362.9 563.3 360.9 565.4C371.6 564.5 422.7 562.1 461.4 591.3C462.036 591.778 462.836 591.983 463.624 591.87C464.412 591.758 465.122 591.337 465.6 590.7C466.077 590.064 466.282 589.264 466.17 588.476C466.057 587.688 465.636 586.978 465 586.5Z" fill="white"/>
<path d="M312.5 705.3C312.5 705.3 345.3 608.3 437.6 625.9C529.9 643.5 656.2 681.3 656.2 681.3V705.6L312.5 705.3Z" fill="white"/>
<path d="M656.198 708.6L312.498 708.3C312.021 708.3 311.552 708.186 311.128 707.968C310.705 707.751 310.339 707.435 310.061 707.048C309.784 706.661 309.603 706.213 309.532 705.742C309.462 705.271 309.505 704.79 309.658 704.339C309.681 704.27 309.713 704.179 309.753 704.068L310.141 703.006C310.286 702.62 310.424 702.258 310.563 701.906L311.052 700.676C312.28 697.637 313.709 694.46 315.298 691.234C320.278 681.078 326.351 671.495 333.408 662.655C338.939 655.708 345.182 649.358 352.036 643.711C358.727 638.218 366.074 633.576 373.908 629.892C380.328 626.894 387.058 624.611 393.977 623.084C401.131 621.526 408.433 620.746 415.756 620.76C423.276 620.788 430.778 621.522 438.162 622.953C455.351 626.231 474.962 630.453 496.438 635.494L500.082 636.353C512.838 639.374 526.396 642.715 540.382 646.284C566.473 652.942 594.045 660.376 622.332 668.384C631.09 670.862 639.618 673.312 647.679 675.666L653.071 677.248L657.063 678.431C657.681 678.614 658.223 678.992 658.608 679.51C658.993 680.027 659.2 680.655 659.198 681.3V705.6C659.198 706.396 658.882 707.159 658.319 707.721C657.756 708.284 656.993 708.6 656.198 708.6ZM415.756 626.76C402.181 626.69 388.759 629.616 376.446 635.331C362.215 641.972 349.31 652.431 338.091 666.412C331.306 674.91 325.469 684.123 320.682 693.887C319.382 696.531 318.182 699.141 317.14 701.644L316.866 702.305L653.201 702.598V683.538L643.923 680.816C636.478 678.649 628.664 676.407 620.697 674.152L616.497 672.965C589.768 665.436 563.661 658.415 538.897 652.096C524.92 648.53 511.397 645.196 498.697 642.196C475.858 636.788 455.113 632.296 437.036 628.852C430.023 627.49 422.899 626.789 415.756 626.76Z" fill="#101323"/>
<path d="M1041.3 347C1041.3 347 1033.9 343.3 1033 334.8C1032.1 326.3 1037.8 289.3 1047 284.1C1056.3 278.9 1098.6 256 1106.4 256.5C1114.2 257 1117.4 324.9 1041.3 347Z" fill="white"/>
<path d="M1045.8 288.2C1061.6 232.9 1074.5 220.5 1082 225.9C1088.8 230.8 1075 266 1071 284.3" fill="white"/>
<path d="M1064.5 232.64L1064.99 231.915C1071.38 222.52 1078.03 219.342 1083.75 223.466C1087.13 225.899 1087.49 230.928 1086.14 238.922L1085.94 240.049C1085.04 244.994 1083.55 250.769 1081.12 259.166L1077.15 272.716C1075.3 279.116 1074.68 281.516 1073.93 284.94C1073.76 285.717 1073.29 286.395 1072.62 286.825C1071.95 287.254 1071.13 287.4 1070.36 287.23C1069.58 287.061 1068.9 286.589 1068.47 285.919C1068.04 285.249 1067.9 284.436 1068.07 283.659L1068.35 282.383C1068.99 279.54 1069.65 277.047 1071.17 271.814L1075.17 258.162C1077.23 251.515 1078.92 244.758 1080.22 237.922L1080.35 237.162C1081.16 231.943 1080.9 228.81 1080.25 228.334C1077.95 226.677 1074.44 228.446 1069.52 235.934L1069.07 236.622C1062.76 246.545 1055.85 263.936 1048.68 289.022C1048.47 289.787 1047.95 290.434 1047.26 290.821C1046.56 291.208 1045.74 291.302 1044.98 291.084C1044.21 290.866 1043.56 290.352 1043.18 289.657C1042.79 288.962 1042.7 288.141 1042.91 287.376L1043.43 285.581C1050.74 260.336 1057.82 242.808 1064.5 232.64Z" fill="#101323"/>
<path d="M1115.5 276.2C1123.4 263.3 1136.5 264 1129.7 285.9C1123 307.3 1118.1 335.1 1105.6 347.7C1093.1 360.3 1088.6 365.9 1088.6 365.9C1088.6 365.9 1063.6 459.2 1049.4 536.8C1028.9 649 990.1 670.6 953.9 657.7C917.7 644.9 911 594.1 960.4 495.6C1009.8 397 1035.9 339.6 1035.9 339.6" fill="white"/>
<path d="M1112.94 274.634C1117.43 267.311 1123.95 263.203 1129.18 265.195C1134.94 267.39 1136.06 275.215 1132.7 286.348L1131.97 288.707C1131.11 291.559 1130.22 294.685 1129.04 298.953L1126.86 306.846C1120.51 329.776 1115.8 341.523 1107.99 349.546L1106.02 351.536C1101.93 355.687 1098.53 359.273 1095.74 362.315L1094.64 363.529C1093.48 364.811 1092.54 365.889 1091.78 366.771L1091.33 367.299L1089.75 373.299L1088.33 378.744C1086.96 384.053 1085.47 389.867 1083.89 396.116C1078.18 418.73 1072.47 442.391 1067.15 465.936L1066 471.049C1063.52 482.084 1061.2 492.832 1059.04 503.224L1058.18 507.424C1056.32 516.471 1054.62 525.168 1053.06 533.517L1052.36 537.338C1042.58 590.865 1028.17 626.647 1009.73 646.219C993.226 663.727 973.748 667.955 952.905 660.527C932.871 653.446 922.076 635.767 922.05 608.795C922.024 580.713 933.54 542.772 957.003 495.695L961.614 486.477C980.299 449.072 996.797 415.285 1011.05 385.452L1016.59 373.809C1020.02 366.594 1023.12 360.003 1025.91 354.037L1030.29 344.616L1033.17 338.359C1033.49 337.649 1034.08 337.093 1034.81 336.809C1035.53 336.524 1036.34 336.534 1037.06 336.836C1037.78 337.138 1038.35 337.708 1038.66 338.426C1038.97 339.143 1038.98 339.952 1038.7 340.68L1038.32 341.517L1035.21 348.283L1030.92 357.477C1027.68 364.416 1024.01 372.187 1019.92 380.79L1015.72 389.59C1000.64 421.143 983.067 457.062 963.083 496.95C917.706 587.421 917.757 641.738 954.907 654.874C973.562 661.522 990.525 657.84 1005.35 642.105C1022.68 623.721 1036.58 589.447 1046.16 537.83L1046.45 536.261C1048.42 525.461 1050.67 514.017 1053.16 502.008C1055.66 489.98 1058.38 477.48 1061.29 464.614C1066.33 442.327 1071.72 419.943 1077.12 398.436L1079.32 389.736C1080.34 385.72 1081.32 381.912 1082.25 378.313L1084.11 371.153L1085.7 365.125C1085.81 364.724 1086 364.349 1086.26 364.025L1086.67 363.525L1087.22 362.882C1088.01 361.959 1088.99 360.839 1090.19 359.517L1091.7 357.854C1094.86 354.421 1098.76 350.343 1103.47 345.59L1103.93 345.121C1110.33 338.39 1114.68 327.887 1120.28 308.103L1123.88 295.111C1124.88 291.54 1125.68 288.782 1126.48 286.178L1126.84 285.014C1129.54 276.314 1128.9 271.514 1127.05 270.807C1125.21 270.1 1121.23 272.607 1118.07 277.77C1117.65 278.449 1116.99 278.934 1116.21 279.12C1115.44 279.306 1114.62 279.177 1113.94 278.762C1113.26 278.346 1112.78 277.678 1112.59 276.904C1112.41 276.13 1112.54 275.315 1112.95 274.636L1112.94 274.634Z" fill="#101323"/>
<path d="M1036.8 341.3C1029.6 336.4 1030.5 308.2 1022.4 295.9C1012.4 280.6 1002.6 264.7 1021.1 267.1C1037 269.1 1042 283.1 1045.7 288.1" fill="white"/>
<path d="M1008.15 275.585C1006.07 267.211 1010.95 262.758 1021.47 264.123C1030.31 265.234 1036.7 269.603 1041.88 276.58L1042.12 276.912C1044.01 279.559 1047.61 285.59 1048.09 286.281L1048.11 286.319C1048.36 286.635 1048.55 286.997 1048.65 287.385C1048.76 287.773 1048.79 288.179 1048.73 288.577C1048.68 288.976 1048.55 289.36 1048.34 289.706C1048.14 290.052 1047.86 290.354 1047.54 290.593C1047.22 290.831 1046.85 291.003 1046.46 291.096C1046.07 291.19 1045.66 291.204 1045.26 291.138C1044.87 291.071 1044.49 290.926 1044.15 290.71C1043.81 290.494 1043.52 290.212 1043.29 289.88L1043.19 289.735C1042.33 288.472 1038.59 282.21 1037.06 280.15C1032.79 274.391 1027.76 270.957 1020.72 270.071C1017.04 269.594 1014.9 269.933 1014.12 270.649C1013.65 271.072 1013.5 272.055 1013.92 273.882L1013.98 274.136C1015.02 278.326 1018.02 283.687 1024.58 293.736L1024.91 294.251C1027.98 298.903 1029.86 305.057 1031.79 314.899L1032.18 316.93L1033.34 323.28C1035.17 332.961 1036.6 337.421 1038.4 338.759L1038.49 338.824C1039.14 339.274 1039.59 339.964 1039.74 340.743C1039.88 341.522 1039.71 342.328 1039.27 342.983C1038.82 343.639 1038.13 344.091 1037.35 344.241C1036.58 344.391 1035.77 344.227 1035.11 343.784C1031.36 341.231 1029.75 336.51 1027.56 324.984L1026.2 317.691L1026.01 316.671C1024.22 307.414 1022.52 301.683 1020.05 297.797L1018.19 294.93C1012.15 285.561 1009.33 280.353 1008.15 275.585Z" fill="#101323"/>
<path d="M1106.3 299.6C1106.3 299.6 1120.4 265.4 1125.1 249.5C1130.3 232.2 1112.1 229.7 1103.3 254.6" fill="white"/>
<path d="M1119.25 233.231C1127.05 232.724 1130.85 240.32 1128.07 250.022L1127.97 250.35C1126.54 255.207 1124.18 261.963 1121.11 270.169L1120.56 271.632C1120.14 272.759 1119.7 273.907 1119.25 275.075C1117.3 280.175 1115.23 285.453 1113.15 290.675L1111.45 294.929L1109.67 299.285L1109.07 300.743C1108.78 301.467 1108.21 302.047 1107.49 302.359C1106.77 302.671 1105.96 302.691 1105.23 302.414C1104.5 302.137 1103.91 301.586 1103.58 300.878C1103.24 300.169 1103.2 299.359 1103.46 298.621L1105.88 292.677C1106.14 292.026 1106.41 291.355 1106.69 290.665C1108.76 285.495 1110.84 280.233 1112.81 275.116L1114.09 271.78L1114.95 269.515C1118.15 261.015 1120.61 254.015 1122.1 249.056L1122.23 248.636C1124.14 242.263 1122.56 239.029 1119.64 239.218C1115.32 239.499 1109.76 245.324 1106.13 255.599C1105.86 256.349 1105.31 256.963 1104.59 257.306C1103.87 257.649 1103.05 257.693 1102.3 257.428C1101.55 257.162 1100.94 256.61 1100.59 255.892C1100.25 255.174 1100.21 254.349 1100.47 253.599C1104.82 241.307 1112.08 233.697 1119.25 233.231Z" fill="#101323"/>
<path d="M1089.7 290.598C1089.7 290.598 1117.4 227.898 1105 222.298C1093.7 217.198 1085.1 240.098 1070.9 284.298" fill="white"/>
<path d="M1086.78 232.632C1092.8 221 1098.91 216.26 1106.23 219.566C1113.77 222.966 1112.33 235.953 1105.6 257.159C1104.46 260.759 1103.17 264.52 1101.77 268.395C1099.96 273.395 1098.03 278.37 1096.09 283.137L1095.36 284.915C1094.68 286.565 1094.05 288.082 1093.46 289.444L1092.44 291.813C1092.12 292.536 1091.52 293.102 1090.78 293.385C1090.04 293.669 1089.22 293.649 1088.49 293.329C1087.77 293.008 1087.2 292.414 1086.91 291.676C1086.62 290.937 1086.64 290.115 1086.95 289.388L1087.73 287.588L1088.38 286.06C1088.83 284.999 1089.31 283.853 1089.81 282.634C1091.96 277.407 1094.11 271.894 1096.12 266.355C1097.5 262.555 1098.76 258.867 1099.88 255.347L1100.37 253.783C1105.42 237.432 1106.56 226.295 1103.77 225.037C1100.29 223.47 1096.59 226.467 1091.72 236.163L1091.16 237.294C1086.67 246.517 1081.86 259.98 1073.76 285.22C1073.64 285.595 1073.44 285.943 1073.19 286.244C1072.93 286.544 1072.62 286.791 1072.27 286.971C1071.92 287.151 1071.54 287.26 1071.15 287.292C1070.75 287.324 1070.36 287.279 1069.98 287.158C1069.61 287.037 1069.26 286.844 1068.96 286.589C1068.66 286.334 1068.41 286.022 1068.23 285.672C1068.05 285.321 1067.94 284.938 1067.91 284.545C1067.88 284.153 1067.92 283.757 1068.04 283.382L1069.79 277.982C1077.2 255.129 1081.75 242.694 1086.21 233.755L1086.78 232.632Z" fill="#101323"/>
<path d="M637 336.2L640.9 406.9C640.9 406.9 634.3 445.1 687.3 438C740.1 431 733.6 399.7 733.6 399.7L717.3 311.9L637 336.2Z" fill="white"/>
<path d="M674.946 441.886C665.988 441.886 658.484 440.312 652.646 437.209C647.176 434.373 642.84 429.753 640.356 424.115C638.096 418.945 637.21 413.28 637.783 407.667C637.803 407.461 637.825 407.267 637.847 407.075L637.888 406.755L634 336.365C633.961 335.693 634.151 335.028 634.538 334.477C634.924 333.926 635.486 333.522 636.131 333.329L716.431 309.029C716.834 308.907 717.259 308.871 717.678 308.924C718.096 308.977 718.499 309.118 718.859 309.337C719.22 309.557 719.53 309.849 719.769 310.196C720.009 310.544 720.173 310.937 720.25 311.352L736.56 399.199C736.592 399.367 736.625 399.574 736.66 399.815L736.71 400.222C737.098 403.668 736.827 407.157 735.91 410.501C734.809 414.446 732.945 418.137 730.423 421.364C722.511 431.664 708.138 438.264 687.702 440.971C683.475 441.557 679.213 441.863 674.946 441.886ZM714.962 315.741L640.125 338.388L643.9 406.735C643.908 406.886 643.905 407.037 643.891 407.187L643.86 407.411C643.845 407.499 643.825 407.649 643.804 407.823L643.759 408.246C643.285 412.823 644.001 417.445 645.837 421.665C650.064 431.115 659.784 435.907 674.727 435.908C678.803 435.883 682.873 435.588 686.91 435.026C705.716 432.533 718.756 426.707 725.666 417.712C729.48 412.981 731.302 406.951 730.746 400.899C730.723 400.699 730.7 400.531 730.678 400.399L714.962 315.741Z" fill="#101323"/>
<path d="M737.6 222.696C737.6 222.696 778.6 207.296 780.2 249.996C781.8 292.696 737.6 281.596 737.6 281.596" fill="white"/>
<path d="M741.57 218.428C747.395 216.946 753.455 216.621 759.406 217.471C773.538 219.774 782.457 230.113 783.199 249.887C783.965 270.334 774.862 281.526 759.564 284.874C753.309 286.139 746.875 286.254 740.579 285.215L739.611 285.06C738.391 284.854 737.459 284.66 736.871 284.509C736.115 284.318 735.463 283.84 735.053 283.177C734.643 282.514 734.508 281.717 734.675 280.956C734.843 280.194 735.3 279.528 735.951 279.098C736.601 278.668 737.393 278.508 738.16 278.652L738.811 278.799L739.121 278.864C739.809 279.006 740.6 279.149 741.481 279.283C747.051 280.207 752.743 280.115 758.281 279.013C770.799 276.273 777.857 267.595 777.199 250.112L777.153 249.096C776.286 232.846 769.494 225.196 758.438 223.396C753.267 222.679 748.007 222.974 742.95 224.267C741.94 224.506 741.007 224.759 740.168 225.012L739.756 225.139C739.45 225.239 739.198 225.318 739.004 225.384L738.654 225.508C737.908 225.788 737.082 225.76 736.358 225.43C735.633 225.101 735.068 224.497 734.789 223.752C734.509 223.007 734.537 222.181 734.866 221.456C735.196 220.731 735.799 220.167 736.545 219.887L736.932 219.746C738.454 219.227 740.002 218.787 741.57 218.428Z" fill="#101323"/>
<path d="M660.7 357.7C639.376 357.7 618.926 349.229 603.848 334.151C588.77 319.074 580.3 298.624 580.3 277.3V207.1C580.314 193.446 585.745 180.355 595.4 170.7C605.055 161.045 618.146 155.615 631.8 155.6H702.2C712.539 155.613 722.451 159.726 729.762 167.038C737.073 174.349 741.187 184.261 741.2 194.6V277.2C741.197 298.549 732.715 319.023 717.619 334.119C702.523 349.215 682.049 357.697 660.7 357.7Z" fill="white"/>
<path d="M660.7 360.7C644.082 360.727 627.838 355.764 614.072 346.456C600.663 337.404 590.166 324.658 583.854 309.762C579.507 299.493 577.278 288.452 577.3 277.3V207.1C577.316 192.651 583.064 178.798 593.281 168.581C603.498 158.364 617.351 152.617 631.8 152.6H702.2C713.335 152.613 724.011 157.042 731.885 164.915C739.759 172.789 744.188 183.465 744.2 194.6V277.2C744.224 293.661 739.359 309.758 730.223 323.451C721.334 336.796 708.801 347.309 694.114 353.742C683.997 358.169 673.099 360.531 662.057 360.69L660.7 360.7ZM631.8 158.6C618.941 158.615 606.614 163.729 597.521 172.821C588.429 181.914 583.315 194.242 583.3 207.1V277.3C583.32 297.818 591.478 317.489 605.984 331.999C620.489 346.51 640.159 354.674 660.676 354.7L661.984 354.689C704.01 354.007 738.201 319.245 738.201 277.199V194.6C738.19 185.056 734.394 175.905 727.645 169.156C720.896 162.407 711.745 158.611 702.201 158.6H631.8Z" fill="#101323"/>
<path d="M759.9 315.3C759.918 297.785 758.277 280.306 755 263.1C755 262.8 755.1 262.4 755.1 262.1C755.1 259.077 753.899 256.177 751.761 254.039C749.623 251.901 746.723 250.7 743.7 250.7V262.1L744 273.5C746.303 273.412 748.529 272.647 750.4 271.3C754.1 294.3 761.4 362.9 730.6 421.2C725 431.9 719.7 441.8 714.5 451.3C685.5 505.4 666.3 541.2 666.8 573.1C666.819 573.89 667.141 574.642 667.7 575.2C668.258 575.759 669.01 576.081 669.8 576.1C670.594 576.098 671.356 575.781 671.918 575.219C672.48 574.657 672.797 573.895 672.8 573.1C672.4 542.7 691.3 507.5 719.8 454.2C724.9 444.6 730.2 434.8 735.9 424C756 385.9 760.1 343.9 759.9 315.3Z" fill="#EC4A0A"/>
<path d="M572.5 274.8C573.901 275.622 575.477 276.102 577.1 276.2V253.5C574.551 253.72 572.154 254.8 570.3 256.563C568.447 258.326 567.248 260.666 566.9 263.2C566.584 263.712 566.412 264.299 566.4 264.9C566.4 269.5 566.4 377.2 598.4 425.8C631.1 475.6 641.2 504 643.5 552.2C643.54 552.973 643.871 553.703 644.428 554.241C644.985 554.779 645.725 555.086 646.5 555.1H646.6C647.389 555.055 648.13 554.708 648.67 554.131C649.21 553.553 649.507 552.79 649.5 552C647.2 502.4 636.9 473.4 603.4 422.5C577.8 383.7 573.3 302.9 572.5 274.8Z" fill="#EC4A0A"/>
<path d="M636.049 226C636.814 225.987 637.555 226.267 638.12 226.782C638.686 227.298 639.033 228.01 639.091 228.773L639.1 228.949L640.177 292.433L640.224 292.451C640.486 292.521 640.765 292.498 641.013 292.384L641.16 292.325C642.702 291.665 644.734 289.433 647.067 285.162C647.448 284.464 648.091 283.945 648.855 283.721C649.618 283.497 650.439 283.586 651.138 283.967C651.836 284.348 652.354 284.991 652.578 285.755C652.802 286.518 652.714 287.34 652.333 288.038C646.852 298.075 640.954 300.598 636.243 297.038C635.664 296.611 635.156 296.097 634.737 295.514C634.44 295.087 634.259 294.591 634.212 294.074L634.2 293.851L633.1 229.051C633.093 228.657 633.164 228.266 633.308 227.899C633.453 227.532 633.668 227.198 633.942 226.915C634.216 226.631 634.543 226.405 634.904 226.248C635.266 226.091 635.655 226.007 636.049 226Z" fill="#101323"/>
<path d="M667.657 301.889C668.046 301.634 668.49 301.473 668.953 301.419C669.415 301.365 669.884 301.42 670.322 301.579C670.76 301.737 671.155 301.996 671.476 302.334C671.796 302.671 672.034 303.079 672.17 303.525L672.24 303.773C672.313 304.05 672.395 304.414 672.472 304.857C673.182 308.655 672.572 312.582 670.744 315.986C667.394 322.191 660.154 326.236 648.494 327.386C647.705 327.459 646.919 327.216 646.308 326.712C645.697 326.207 645.31 325.481 645.233 324.693C645.155 323.904 645.393 323.117 645.893 322.503C646.394 321.889 647.118 321.498 647.906 321.415C657.725 320.448 663.156 317.415 665.465 313.137C666.01 312.125 666.387 311.031 666.582 309.898L666.647 309.474L666.556 309.524C653.516 316.547 640.489 317.015 634.033 309.793L633.818 309.546C633.313 308.939 633.067 308.158 633.135 307.371C633.202 306.585 633.577 305.857 634.177 305.345C634.778 304.832 635.556 304.577 636.343 304.635C637.13 304.693 637.863 305.059 638.383 305.653C643.024 311.098 655.309 309.971 667.657 301.889Z" fill="#101323"/>
<path d="M663.367 202.595C669.913 197.616 677.685 197.084 686.067 203.752C686.69 204.247 687.091 204.97 687.181 205.761C687.272 206.552 687.045 207.346 686.549 207.97C686.054 208.593 685.331 208.994 684.54 209.084C683.75 209.175 682.955 208.947 682.332 208.452C676.267 203.623 671.499 203.949 666.999 207.371C666.391 207.836 665.811 208.337 665.262 208.871L664.162 209.96C664.007 210.109 663.876 210.228 663.735 210.342C663.36 210.668 662.911 210.898 662.428 211.012C661.756 211.18 661.047 211.11 660.421 210.815C659.795 210.519 659.29 210.017 658.993 209.392C658.695 208.767 658.622 208.058 658.788 207.386C658.953 206.713 659.345 206.119 659.899 205.703L660.029 205.609L660.686 204.956C661.525 204.109 662.421 203.321 663.367 202.595Z" fill="#101323"/>
<path d="M684.2 255.8C686.961 255.8 689.2 252.353 689.2 248.1C689.2 243.848 686.961 240.4 684.2 240.4C681.438 240.4 679.2 243.848 679.2 248.1C679.2 252.353 681.438 255.8 684.2 255.8Z" fill="#101323"/>
<path d="M611.5 257.7C614.261 257.7 616.5 254.253 616.5 250C616.5 245.748 614.261 242.3 611.5 242.3C608.738 242.3 606.5 245.748 606.5 250C606.5 254.253 608.738 257.7 611.5 257.7Z" fill="#101323"/>
<path d="M597.554 201.649C605.043 195.675 613.255 195.393 620.467 204.657C620.713 204.968 620.895 205.324 621.002 205.705C621.11 206.086 621.141 206.485 621.094 206.878C621.047 207.272 620.922 207.652 620.727 207.997C620.532 208.342 620.271 208.644 619.958 208.888C619.646 209.131 619.288 209.31 618.906 209.415C618.524 209.519 618.125 209.547 617.732 209.496C617.339 209.445 616.96 209.318 616.617 209.12C616.274 208.922 615.973 208.658 615.733 208.343C610.864 202.09 606.433 202.243 601.296 206.343C600.592 206.908 599.919 207.509 599.279 208.143L598.099 209.315C597.94 209.47 597.807 209.592 597.67 209.707C597.289 210.053 596.826 210.294 596.325 210.407C595.654 210.572 594.948 210.5 594.324 210.204C593.701 209.908 593.198 209.407 592.901 208.783C592.605 208.16 592.532 207.454 592.695 206.783C592.859 206.113 593.248 205.519 593.799 205.102L593.914 205.019L594.686 204.245C595.591 203.325 596.548 202.458 597.554 201.649Z" fill="#101323"/>
<path d="M680.8 138.1C661.3 138.4 646.5 139.3 637.7 141C566.1 157.3 577.7 210.3 577.7 210.3C577.7 210.3 612.7 217 641.2 174.8C641.2 174.8 680.3 206.7 738.2 219.6C739.1 219.4 740.2 219.1 741.2 218.8V221.7C745.957 220.434 750.884 219.928 755.8 220.2C755.2 199.3 751.4 172.9 734.2 155.9C722 143.8 704 137.8 680.8 138.1Z" fill="#101323"/>
<path d="M639.288 134.529C654.166 132.73 669.145 131.885 684.132 132C715.04 132.328 735.7 143.716 747.937 163.801C752.875 172.167 756.403 181.289 758.381 190.801C760.078 198.689 761.217 206.687 761.789 214.736C761.849 215.524 761.596 216.304 761.085 216.906C760.573 217.509 759.845 217.885 759.058 217.954C758.271 218.022 757.488 217.777 756.88 217.273C756.273 216.768 755.889 216.043 755.812 215.257L755.651 213.462C753.786 193.314 750.587 179.674 742.814 166.92C731.665 148.632 712.935 138.306 684.082 138L682.319 137.994C668.212 137.951 654.117 138.779 640.113 140.472C639.722 140.527 639.324 140.504 638.943 140.406C638.561 140.307 638.202 140.133 637.887 139.896C637.572 139.658 637.308 139.361 637.108 139.021C636.908 138.681 636.777 138.304 636.723 137.914C636.669 137.523 636.692 137.126 636.792 136.744C636.891 136.362 637.065 136.004 637.303 135.69C637.542 135.375 637.839 135.111 638.18 134.912C638.52 134.713 638.897 134.583 639.288 134.529Z" fill="white"/>
<path d="M819.5 148.5C803 63.5 748.7 41.9001 687 63.5001C636.3 81.2001 632.299 77.3 637.099 135C646.399 133.4 661 132.4 680.8 132.1C705.7 131.8 725.1 138.3 738.5 151.6C757.5 170.4 761.4 198.9 761.9 221.1C771.1 223.6 779.6 231.1 780.3 250C780.4 251.9 778.7 266.6 779.1 266.5C779.073 272.275 780.629 277.947 783.6 282.9C790.499 294 804.5 300.9 825.3 303.3H825.7C826.46 303.316 827.198 303.038 827.76 302.524C828.321 302.011 828.663 301.3 828.715 300.541C828.766 299.782 828.523 299.032 828.036 298.447C827.549 297.862 826.856 297.487 826.1 297.4C807.299 295.2 794.7 289.3 788.8 279.8C786.722 276.445 785.487 272.636 785.2 268.7C790.3 274.7 799.2 281.2 813.3 281.2C817.03 281.165 820.748 280.763 824.4 280C824.78 279.921 825.142 279.768 825.464 279.55C825.785 279.331 826.061 279.051 826.274 278.726C826.488 278.401 826.635 278.038 826.708 277.656C826.781 277.274 826.778 276.881 826.7 276.5C826.621 276.119 826.468 275.758 826.249 275.436C826.031 275.114 825.751 274.839 825.426 274.625C825.101 274.412 824.737 274.264 824.355 274.191C823.973 274.118 823.58 274.121 823.2 274.2C805 278 794.9 271.1 789.6 264.9C793.698 264.013 791.039 251.377 795 250C856.6 228.3 816 163 819.5 148.5Z" fill="#101323"/>
<path d="M688.5 289.6C679.364 289.595 670.51 286.432 663.44 280.646C656.369 274.861 651.515 266.809 649.701 257.855C647.888 248.901 649.225 239.595 653.486 231.514C657.748 223.432 664.672 217.073 673.086 213.512C682.763 209.424 693.668 209.348 703.401 213.3C713.135 217.252 720.9 224.909 724.988 234.586C729.076 244.264 729.152 255.168 725.2 264.902C721.248 274.635 713.591 282.4 703.914 286.488C699.037 288.552 693.795 289.611 688.5 289.6ZM688.5 216.4C681.854 216.4 675.358 218.371 669.833 222.063C664.307 225.755 660 231.003 657.457 237.142C654.914 243.282 654.249 250.038 655.545 256.555C656.842 263.073 660.042 269.06 664.741 273.759C669.44 278.458 675.427 281.658 681.945 282.955C688.462 284.251 695.218 283.586 701.358 281.043C707.497 278.5 712.745 274.193 716.437 268.667C720.129 263.142 722.1 256.646 722.1 250C722.09 241.092 718.546 232.552 712.247 226.253C705.948 219.954 697.408 216.41 688.5 216.4Z" fill="#101323"/>
<path d="M651.1 246.1C651.881 246.099 652.631 246.403 653.192 246.947C653.752 247.491 654.078 248.231 654.101 249.012C654.124 249.793 653.842 250.551 653.314 251.127C652.787 251.703 652.055 252.05 651.276 252.095L651.1 252.1H627.3C626.519 252.101 625.768 251.797 625.208 251.253C624.647 250.71 624.321 249.969 624.298 249.188C624.275 248.408 624.558 247.649 625.085 247.073C625.613 246.497 626.344 246.15 627.124 246.105L627.3 246.1H651.1Z" fill="#101323"/>
<path d="M739.723 217.988C740.402 217.602 741.205 217.496 741.961 217.692C742.717 217.889 743.367 218.372 743.772 219.041C744.177 219.709 744.305 220.509 744.13 221.27C743.954 222.031 743.489 222.694 742.832 223.117L742.676 223.212L721.976 234.912C721.297 235.299 720.494 235.405 719.738 235.208C718.981 235.012 718.332 234.528 717.927 233.86C717.522 233.192 717.393 232.392 717.569 231.631C717.744 230.869 718.21 230.207 718.867 229.783L719.023 229.688L739.723 217.988Z" fill="#101323"/>
<path d="M589.5 289.6C580.364 289.595 571.51 286.432 564.44 280.646C557.369 274.861 552.515 266.809 550.701 257.855C548.888 248.901 550.225 239.595 554.486 231.514C558.748 223.432 565.672 217.073 574.086 213.512C583.763 209.424 594.668 209.348 604.401 213.3C614.135 217.252 621.9 224.909 625.988 234.586C630.076 244.264 630.152 255.168 626.2 264.902C622.248 274.635 614.591 282.4 604.914 286.488C600.037 288.552 594.795 289.611 589.5 289.6ZM589.5 216.4C582.854 216.4 576.358 218.371 570.833 222.063C565.307 225.755 561 231.003 558.457 237.142C555.914 243.282 555.249 250.038 556.545 256.555C557.842 263.073 561.042 269.06 565.741 273.759C570.44 278.458 576.427 281.658 582.945 282.955C589.462 284.251 596.218 283.586 602.358 281.043C608.497 278.5 613.745 274.193 617.437 268.667C621.129 263.142 623.1 256.646 623.1 250C623.09 241.092 619.546 232.552 613.247 226.253C606.948 219.954 598.408 216.41 589.5 216.4Z" fill="#101323"/>
<path d="M841.2 667.8H820.4L810.2 516.5C809.789 511.321 807.46 506.482 803.668 502.93C799.876 499.379 794.895 497.371 789.7 497.3H499.8C497.326 497.259 494.871 497.738 492.594 498.706C490.316 499.674 488.268 501.109 486.58 502.919C484.893 504.729 483.605 506.873 482.798 509.213C481.992 511.552 481.686 514.035 481.9 516.5L493.2 684C493.611 689.179 495.94 694.018 499.732 697.57C503.524 701.121 508.505 703.129 513.7 703.2L841.1 702.8C843.963 702.795 846.707 701.655 848.731 699.631C850.755 697.607 851.895 694.863 851.9 692V678.7C851.927 677.278 851.671 675.864 851.146 674.543C850.62 673.221 849.836 672.017 848.84 671.002C847.843 669.987 846.654 669.181 845.343 668.631C844.031 668.081 842.622 667.799 841.2 667.8Z" fill="#EC4A0A"/>
<path d="M645 584.001C639.501 584.001 635 588.502 635 594.001C635 599.5 639.501 604.001 645 604.001C650.499 604.001 655 599.5 655 594.001C655 588.502 650.499 584.001 645 584.001ZM645 588.001C648.337 588.001 651 590.664 651 594.001C651 597.338 648.337 600.001 645 600.001C641.663 600.001 639 597.338 639 594.001C639 590.664 641.663 588.001 645 588.001Z" fill="white"/>
<path d="M633 574C628.603 574 625 577.603 625 582V586C625 586.53 625.211 587.039 625.586 587.414C625.961 587.789 626.47 588 627 588C627.53 588 628.039 587.789 628.414 587.414C628.789 587.039 629 586.53 629 586V582C629 579.749 630.749 578 633 578H637C637.53 578 638.039 577.789 638.414 577.414C638.789 577.039 639 576.53 639 576C639 575.47 638.789 574.961 638.414 574.586C638.039 574.211 637.53 574 637 574H633Z" fill="white"/>
<path d="M627 600C626.47 600 625.961 600.211 625.586 600.586C625.211 600.961 625 601.47 625 602V606C625 610.397 628.603 614 633 614H637C637.53 614 638.039 613.789 638.414 613.414C638.789 613.039 639 612.53 639 612C639 611.47 638.789 610.961 638.414 610.586C638.039 610.211 637.53 610 637 610H633C630.749 610 629 608.251 629 606V602C629 601.47 628.789 600.961 628.414 600.586C628.039 600.211 627.53 600 627 600Z" fill="white"/>
<path d="M663 600C662.47 600 661.961 600.211 661.586 600.586C661.211 600.961 661 601.47 661 602V606C661 608.251 659.251 610 657 610H653C652.47 610 651.961 610.211 651.586 610.586C651.211 610.961 651 611.47 651 612C651 612.53 651.211 613.039 651.586 613.414C651.961 613.789 652.47 614 653 614H657C661.397 614 665 610.397 665 606V602C665 601.47 664.789 600.961 664.414 600.586C664.039 600.211 663.53 600 663 600Z" fill="white"/>
<path d="M653 574C652.47 574 651.961 574.211 651.586 574.586C651.211 574.961 651 575.47 651 576C651 576.53 651.211 577.039 651.586 577.414C651.961 577.789 652.47 578 653 578H657C659.251 578 661 579.749 661 582V586C661 586.53 661.211 587.039 661.586 587.414C661.961 587.789 662.47 588 663 588C663.53 588 664.039 587.789 664.414 587.414C664.789 587.039 665 586.53 665 586V582C665 577.603 661.397 574 657 574H653Z" fill="white"/>
<path d="M1222.1 703.201C1222.88 703.2 1223.63 703.504 1224.19 704.047C1224.75 704.591 1225.08 705.332 1225.1 706.113C1225.12 706.893 1224.84 707.652 1224.31 708.228C1223.79 708.803 1223.06 709.151 1222.28 709.196L1222.1 709.201H2.99996C2.21906 709.201 1.46863 708.898 0.908146 708.354C0.347657 707.81 0.0212795 707.069 -0.00163632 706.289C-0.0245521 705.508 0.2578 704.749 0.785424 704.174C1.31305 703.598 2.04436 703.251 2.82396 703.206L2.99996 703.201H1222.1Z" fill="#101323"/>
</g>
<defs>
<clipPath id="clip0_2834_8280">
<rect width="1225.1" height="709.2" fill="white"/>
</clipPath>
</defs>
</svg>
